<?xml version="1.0" encoding="UTF-8" standalone="no"?>
<!DOCTYPE svg PUBLIC "-//W3C//DTD SVG 1.1//EN"
"http://www.w3.org/Graphics/SVG/1.1/DTD/svg11.dtd">
<svg viewBox="0 0 1099 824" version="1.1" xmlns="http://www.w3.org/2000/svg" xmlns:xlink="http://www.w3.org/1999/xlink">
<defs>
<clipPath id="c0_59"><path d="M0,825L0,0L1100,0l0,825Z" /></clipPath>
<clipPath id="c1_59"><path d="M110,275l0,-76l916.4,0l0,76Z" /></clipPath>
<clipPath id="c2_59"><path d="M250.9,651.7l0,-322.8l550,0l0,322.8Z" /></clipPath>
<style type="text/css"><![CDATA[
.g1_59{
fill: #FFFFFF;
}
.g2_59{
fill: none;
stroke: #CC9900;
stroke-width: 2.291514;
stroke-linecap: butt;
stroke-linejoin: miter;
stroke-miterlimit: 7;
}
.g3_59{
fill: none;
stroke: #CC9900;
stroke-width: 2.291514;
stroke-linecap: square;
stroke-linejoin: miter;
stroke-miterlimit: 7;
}
.g4_59{
fill: none;
stroke: #000000;
stroke-width: 0.15277778;
stroke-linecap: butt;
stroke-linejoin: miter;
}
.g5_59{
}
.g6_59{
fill: none;
stroke: #FFFFFF;
stroke-width: 1.6301236;
stroke-linecap: round;
stroke-linejoin: miter;
stroke-miterlimit: 1;
}
.g7_59{
fill: none;
stroke: #333333;
stroke-width: 1.6301236;
stroke-linecap: round;
stroke-linejoin: miter;
stroke-miterlimit: 1;
}
.g8_59{
fill: #333333;
}
.g9_59{
fill: none;
stroke: #333333;
stroke-width: 1.6301236;
stroke-linecap: round;
stroke-linejoin: round;
}
]]></style>
</defs>
<g clip-path="url(#c0_59)">
<path fill-rule="evenodd" d="M0,0.1l1100,0l0,825L0,825.1L0,0.1Z" class="g1_59" />
<path fill-rule="evenodd" d="M0,0.1l1100,0l0,825L0,825.1L0,0.1Z" class="g1_59" />
</g>
<path d="M45.8,100.9l0,-73.3l990,0" class="g2_59" />
<path d="M45.8,27.6l0,0Z" class="g2_59" />
<path d="M1035.8,100.9l0,0Z" class="g2_59" />
<path d="M55,742.6l990,0.2" class="g3_59" />
<g clip-path="url(#c1_59)">
<path d="M110,199.2l0,75.9" class="g4_59" />
<path fill-rule="evenodd" d="M110,199.2l2,0l0,75.9l-2,0l0,-75.9Z" class="g5_59" />
<path d="M201.4,201l0,74.1" class="g4_59" />
<path fill-rule="evenodd" d="M201.4,201l2.1,0l0,74.1l-2.1,0l0,-74.1Z" class="g5_59" />
<path d="M292.9,201l0,74.1" class="g4_59" />
<path fill-rule="evenodd" d="M292.9,201l2,0l0,74.1l-2,0l0,-74.1Z" class="g5_59" />
<path d="M384.4,201l0,74.1" class="g4_59" />
<path fill-rule="evenodd" d="M384.4,201l2,0l0,74.1l-2,0l0,-74.1Z" class="g5_59" />
<path d="M475.7,201l0,74.1" class="g4_59" />
<path fill-rule="evenodd" d="M475.7,201l2,0l0,74.1l-2,0l0,-74.1Z" class="g5_59" />
<path d="M567.3,201l0,74.1" class="g4_59" />
<path fill-rule="evenodd" d="M567.3,201l2,0l0,74.1l-2,0l0,-74.1Z" class="g5_59" />
<path d="M658.6,201l0,74.1" class="g4_59" />
<path fill-rule="evenodd" d="M658.6,201l2.2,0l0,74.1l-2.2,0l0,-74.1Z" class="g5_59" />
<path d="M750.1,201l0,74.1" class="g4_59" />
<path fill-rule="evenodd" d="M750.1,201l2,0l0,74.1l-2,0l0,-74.1Z" class="g5_59" />
<path d="M841.5,201l0,74.1" class="g4_59" />
<path fill-rule="evenodd" d="M841.5,201l2.1,0l0,74.1l-2.1,0l0,-74.1Z" class="g5_59" />
<path d="M933,201l0,74.1" class="g4_59" />
<path fill-rule="evenodd" d="M933,201l2,0l0,74.1l-2,0L933,201Z" class="g5_59" />
<path d="M1024.4,201l0,74.1" class="g4_59" />
<path fill-rule="evenodd" d="M1024.4,201l2.1,0l0,74.1l-2.1,0l0,-74.1Z" class="g5_59" />
<path d="M112.1,199.2l914.4,0" class="g4_59" />
<path fill-rule="evenodd" d="M112.1,199.2l914.4,0l0,1.8l-914.4,0l0,-1.8Z" class="g5_59" />
<path d="M112.1,223.8l914.4,0" class="g4_59" />
<path fill-rule="evenodd" d="M112.1,223.8l914.4,0l0,2l-914.4,0l0,-2Z" class="g5_59" />
<path d="M112.1,248.5l914.4,0" class="g4_59" />
<path fill-rule="evenodd" d="M112.1,248.5l914.4,0l0,1.9l-914.4,0l0,-1.9Z" class="g5_59" />
<path d="M112.1,273.3l914.4,0" class="g4_59" />
<path fill-rule="evenodd" d="M112.1,273.3l914.4,0l0,1.8l-914.4,0l0,-1.8Z" class="g5_59" />
</g>
<path fill-rule="evenodd" d="M138.3,295l851.4,0l0,429.3l-851.4,0l0,-429.3Z" class="g1_59" />
<path fill-rule="evenodd" d="M255.9,333.5l538.2,0l0,313.6l-538.2,0l0,-313.6Z" class="g1_59" />
<path d="M255.9,616.3l538.2,0" class="g4_59" />
<path d="M255.9,583.7l538.2,0" class="g4_59" />
<path d="M255.9,552.9l538.2,0" class="g4_59" />
<path d="M255.9,522l538.2,0" class="g4_59" />
<path d="M255.9,491.1l538.2,0" class="g4_59" />
<path d="M255.9,458.6l538.2,0" class="g4_59" />
<path d="M255.9,427.7l538.2,0" class="g4_59" />
<path d="M255.9,396.9l538.2,0" class="g4_59" />
<path d="M255.9,364.5l538.2,0" class="g4_59" />
<path d="M255.9,333.5l538.2,0" class="g4_59" />
<path d="M255.9,333.5l538.2,0" class="g6_59" />
<path d="M794.1,333.5l0,313.6" class="g6_59" />
<path d="M794.1,647.1l-538.2,0" class="g6_59" />
<path d="M255.9,647.1l0,-313.6" class="g6_59" />
<path d="M255.9,333.5l0,313.6" class="g4_59" />
<path d="M249.3,647.1l6.6,0" class="g4_59" />
<path d="M249.3,616.3l6.6,0" class="g4_59" />
<path d="M249.3,583.7l6.6,0" class="g4_59" />
<path d="M249.3,552.9l6.6,0" class="g4_59" />
<path d="M249.3,522l6.6,0" class="g4_59" />
<path d="M249.3,491.1l6.6,0" class="g4_59" />
<path d="M249.3,458.6l6.6,0" class="g4_59" />
<path d="M249.3,427.7l6.6,0" class="g4_59" />
<path d="M249.3,396.9l6.6,0" class="g4_59" />
<path d="M249.3,364.5l6.6,0" class="g4_59" />
<path d="M249.3,333.5l6.6,0" class="g4_59" />
<path d="M255.9,647.1l538.2,0" class="g4_59" />
<path d="M255.9,653.2l0,-6.1" class="g4_59" />
<path d="M310.6,653.2l0,-6.1" class="g4_59" />
<path d="M363.6,653.2l0,-6.1" class="g4_59" />
<path d="M418.3,653.2l0,-6.1" class="g4_59" />
<path d="M471.2,653.2l0,-6.1" class="g4_59" />
<path d="M526,653.2l0,-6.1" class="g4_59" />
<path d="M578.9,653.2l0,-6.1" class="g4_59" />
<path d="M633.6,653.2l0,-6.1" class="g4_59" />
<path d="M686.6,653.2l0,-6.1" class="g4_59" />
<path d="M741.1,653.2l0,-6.1" class="g4_59" />
<path d="M794.1,653.2l0,-6.1" class="g4_59" />
<path d="M255.9,647.1L310.6,515.7" class="g7_59" />
<path d="M310.6,515.7l53,-75.6" class="g7_59" />
<path d="M363.6,440.1L418.3,403" class="g7_59" />
<path d="M418.3,403l52.9,-26.3" class="g7_59" />
<path d="M471.2,376.7L526,364.5" class="g7_59" />
<path d="M526,364.5L578.9,352" class="g7_59" />
<path d="M578.9,352l54.7,-6.2" class="g7_59" />
<path d="M633.6,345.8l53,-6.2" class="g7_59" />
<path d="M686.6,339.6l54.5,-2.9" class="g7_59" />
<path d="M741.1,336.7l53,-3.2" class="g7_59" />
<path d="M255.9,647.1l54.7,-30.8" class="g7_59" />
<path d="M310.6,616.3l53,-32.6" class="g7_59" />
<path d="M363.6,583.7l54.7,-30.8" class="g7_59" />
<path d="M418.3,552.9L471.2,522" class="g7_59" />
<path d="M471.2,522L526,491.1" class="g7_59" />
<path d="M526,491.1l52.9,-32.5" class="g7_59" />
<path d="M578.9,458.6l54.7,-30.9" class="g7_59" />
<path d="M633.6,427.7l53,-30.8" class="g7_59" />
<path d="M686.6,396.9l54.5,-32.4" class="g7_59" />
<path d="M741.1,364.5l53,-31" class="g7_59" />
<g clip-path="url(#c2_59)">
<path fill-rule="evenodd" d="M255.9,642.5l5,9.4l-10,0l5,-9.4Z" class="g8_59" />
<path d="M255.9,642.5l5,9.4l-10,0l5,-9.4Z" class="g9_59" />
</g>
<path fill-rule="evenodd" d="M310.6,511.2l5,9.3l-9.9,0l4.9,-9.3Z" class="g8_59" />
<path d="M310.6,511.2l5,9.3l-9.9,0l4.9,-9.3Z" class="g9_59" />
<path fill-rule="evenodd" d="M363.6,435.5l5.1,9.2l-10.1,0l5,-9.2Z" class="g8_59" />
<path d="M363.6,435.5l5.1,9.2l-10.1,0l5,-9.2Z" class="g9_59" />
<path fill-rule="evenodd" d="M418.3,398.4l4.9,9.3l-9.9,0l5,-9.3Z" class="g8_59" />
<path d="M418.3,398.4l4.9,9.3l-9.9,0l5,-9.3Z" class="g9_59" />
<path fill-rule="evenodd" d="M471.2,372.1l5,9.3l-9.9,0l4.9,-9.3Z" class="g8_59" />
<path d="M471.2,372.1l5,9.3l-9.9,0l4.9,-9.3Z" class="g9_59" />
<path fill-rule="evenodd" d="M526,359.7l4.9,9.4l-9.9,0l5,-9.4Z" class="g8_59" />
<path d="M526,359.7l4.9,9.4l-9.9,0l5,-9.4Z" class="g9_59" />
<path fill-rule="evenodd" d="M578.9,347.4l5,9.3l-9.9,0l4.9,-9.3Z" class="g8_59" />
<path d="M578.9,347.4l5,9.3l-9.9,0l4.9,-9.3Z" class="g9_59" />
<path fill-rule="evenodd" d="M633.6,341.3l5,9.3l-10.1,0l5.1,-9.3Z" class="g8_59" />
<path d="M633.6,341.3l5,9.3l-10.1,0l5.1,-9.3Z" class="g9_59" />
<path fill-rule="evenodd" d="M686.6,335l4.9,9.3l-10,0l5.1,-9.3Z" class="g8_59" />
<path d="M686.6,335l4.9,9.3l-10,0l5.1,-9.3Z" class="g9_59" />
<path fill-rule="evenodd" d="M741.1,331.9l5.2,9.4l-10.1,0l4.9,-9.4Z" class="g8_59" />
<path d="M741.1,331.9l5.2,9.4l-10.1,0l4.9,-9.4Z" class="g9_59" />
<path fill-rule="evenodd" d="M794.1,328.9l5.1,9.2l-10,0l4.9,-9.2Z" class="g8_59" />
<path d="M794.1,328.9l5.1,9.2l-10,0l4.9,-9.2Z" class="g9_59" />
<path fill-rule="evenodd" d="M250.9,642.5l8.2,0l0,7.7l-8.2,0l0,-7.7Z" class="g8_59" />
<path d="M250.9,642.5l8.2,0l0,7.7l-8.2,0l0,-7.7Z" class="g9_59" />
<path fill-rule="evenodd" d="M305.7,611.7l8.1,0l0,7.6l-8.1,0l0,-7.6Z" class="g8_59" />
<path d="M305.7,611.7l8.1,0l0,7.6l-8.1,0l0,-7.6Z" class="g9_59" />
<path fill-rule="evenodd" d="M358.6,579.1l8.2,0l0,7.7l-8.2,0l0,-7.7Z" class="g8_59" />
<path d="M358.6,579.1l8.2,0l0,7.7l-8.2,0l0,-7.7Z" class="g9_59" />
<path fill-rule="evenodd" d="M413.3,548.3l8.2,0l0,7.6l-8.2,0l0,-7.6Z" class="g8_59" />
<path d="M413.3,548.3l8.2,0l0,7.6l-8.2,0l0,-7.6Z" class="g9_59" />
<path fill-rule="evenodd" d="M466.3,517.4l8.2,0l0,7.7l-8.2,0l0,-7.7Z" class="g8_59" />
<path d="M466.3,517.4l8.2,0l0,7.7l-8.2,0l0,-7.7Z" class="g9_59" />
<path fill-rule="evenodd" d="M521,486.4l8.2,0l0,7.6l-8.2,0l0,-7.6Z" class="g8_59" />
<path d="M521,486.4l8.2,0l0,7.6l-8.2,0l0,-7.6Z" class="g9_59" />
<path fill-rule="evenodd" d="M574,454l8.2,0l0,7.7l-8.2,0l0,-7.7Z" class="g8_59" />
<path d="M574,454l8.2,0l0,7.7l-8.2,0l0,-7.7Z" class="g9_59" />
<path fill-rule="evenodd" d="M628.5,423.2l8.3,0l0,7.6l-8.3,0l0,-7.6Z" class="g8_59" />
<path d="M628.5,423.2l8.3,0l0,7.6l-8.3,0l0,-7.6Z" class="g9_59" />
<path fill-rule="evenodd" d="M681.5,392.1l8.3,0l0,7.8l-8.3,0l0,-7.8Z" class="g8_59" />
<path d="M681.5,392.1l8.3,0l0,7.8l-8.3,0l0,-7.8Z" class="g9_59" />
<path fill-rule="evenodd" d="M736.2,359.7l8.3,0l0,7.8l-8.3,0l0,-7.8Z" class="g8_59" />
<path d="M736.2,359.7l8.3,0l0,7.8l-8.3,0l0,-7.8Z" class="g9_59" />
<path fill-rule="evenodd" d="M789.2,328.9l8.3,0l0,7.6l-8.3,0l0,-7.6Z" class="g8_59" />
<path d="M789.2,328.9l8.3,0l0,7.6l-8.3,0l0,-7.6Z" class="g9_59" />
<path fill-rule="evenodd" d="M852.2,457.1l134.1,0l0,64.9l-134.1,0l0,-64.9Z" class="g1_59" />
<path d="M852.2,457.1l134.1,0l0,64.9l-134.1,0l0,-64.9Z" class="g4_59" />
<path d="M860.4,475.7l44.8,0" class="g7_59" />
<path fill-rule="evenodd" d="M882,471l5,9.3l-9.9,0L882,471Z" class="g8_59" />
<path d="M882,471l5,9.3l-9.9,0L882,471Z" class="g9_59" />
<path d="M860.4,508.1l44.8,0" class="g7_59" />
<path fill-rule="evenodd" d="M877.1,503.5l8.2,0l0,7.7l-8.2,0l0,-7.7Z" class="g8_59" />
<path d="M877.1,503.5l8.2,0l0,7.7l-8.2,0l0,-7.7Z" class="g9_59" />
<path fill-rule="evenodd" d="M45.8,144l980.9,0l0,55.5l-980.9,0l0,-55.5Z" class="g1_59" />
</svg>