<?xml version="1.0" encoding="UTF-8" standalone="no"?>
<!DOCTYPE svg PUBLIC "-//W3C//DTD SVG 1.1//EN"
"http://www.w3.org/Graphics/SVG/1.1/DTD/svg11.dtd">
<svg viewBox="0 0 1099 824" version="1.1" xmlns="http://www.w3.org/2000/svg" xmlns:xlink="http://www.w3.org/1999/xlink">
<defs>
<clipPath id="c0_18"><path d="M0,825L0,0L1100,0l0,825Z" /></clipPath>
<style type="text/css"><![CDATA[
.g1_18{
fill: #FFFFFF;
}
.g2_18{
fill: none;
stroke: #CC9900;
stroke-width: 2.291514;
stroke-linecap: butt;
stroke-linejoin: miter;
stroke-miterlimit: 7;
}
.g3_18{
fill: none;
stroke: #CC9900;
stroke-width: 2.291514;
stroke-linecap: square;
stroke-linejoin: miter;
stroke-miterlimit: 7;
}
.g4_18{
fill: none;
stroke: #FF0000;
stroke-width: 6.8745265;
stroke-linecap: square;
stroke-linejoin: miter;
}
.g5_18{
fill: #FF0000;
}
]]></style>
</defs>
<g clip-path="url(#c0_18)">
<path fill-rule="evenodd" d="M0,0.1l1100,0l0,825L0,825.1L0,0.1Z" class="g1_18" />
<path fill-rule="evenodd" d="M0,0.1l1100,0l0,825L0,825.1L0,0.1Z" class="g1_18" />
</g>
<path d="M45.8,100.9l0,-73.3l990,0" class="g2_18" />
<path d="M45.8,27.6l0,0Z" class="g2_18" />
<path d="M1035.8,100.9l0,0Z" class="g2_18" />
<path d="M55,742.6l990,0.2" class="g3_18" />
<image preserveAspectRatio="none" x="60" y="322" width="990" height="420" xlink:href="img/1.png" />
<image preserveAspectRatio="none" x="60" y="170" width="966" height="113" xlink:href="img/2.png" />
<path d="M407.3,391.1l-160,62.1" class="g4_18" />
<path fill-rule="evenodd" d="M229.3,460.3l15.6,-17.1l7.5,19.2l-23.1,-2.1Z" class="g5_18" />
<path d="M238.2,546.9l61.5,75.9" class="g4_18" />
<path fill-rule="evenodd" d="M311.8,637.8l-21.1,-9.6l16.2,-13l4.9,22.6Z" class="g5_18" />
</svg>