<?xml version="1.0" encoding="UTF-8" standalone="no"?>
<!DOCTYPE svg PUBLIC "-//W3C//DTD SVG 1.1//EN"
"http://www.w3.org/Graphics/SVG/1.1/DTD/svg11.dtd">
<svg viewBox="0 0 1099 824" version="1.1" xmlns="http://www.w3.org/2000/svg" xmlns:xlink="http://www.w3.org/1999/xlink">
<defs>
<clipPath id="c0_141"><path d="M0,825L0,0L1100,0l0,825Z" /></clipPath>
<style type="text/css"><![CDATA[
.g1_141{
fill: #FFFFFF;
}
.g2_141{
fill: none;
stroke: #CC9900;
stroke-width: 2.291514;
stroke-linecap: butt;
stroke-linejoin: miter;
stroke-miterlimit: 7;
}
.g3_141{
fill: none;
stroke: #CC9900;
stroke-width: 2.291514;
stroke-linecap: square;
stroke-linejoin: miter;
stroke-miterlimit: 7;
}
.g4_141{
fill: none;
stroke: #000000;
stroke-width: 2.2498972;
stroke-linecap: round;
stroke-linejoin: miter;
stroke-miterlimit: 1;
}
.g5_141{
fill: none;
stroke: #000000;
stroke-width: 4.4997945;
stroke-linecap: round;
stroke-linejoin: miter;
stroke-miterlimit: 1;
}
]]></style>
</defs>
<g clip-path="url(#c0_141)">
<path fill-rule="evenodd" d="M0,0.1l1100,0l0,825L0,825.1L0,0.1Z" class="g1_141" />
<path fill-rule="evenodd" d="M0,0.1l1100,0l0,825L0,825.1L0,0.1Z" class="g1_141" />
</g>
<path d="M45.8,100.9l0,-73.3l990,0" class="g2_141" />
<path d="M45.8,27.6l0,0Z" class="g2_141" />
<path d="M1035.8,100.9l0,0Z" class="g2_141" />
<path d="M55,742.6l990,0.2" class="g3_141" />
<path d="M605.6,407.3l6.1,-3.7" class="g4_141" />
<path d="M611.7,404.7l9,16.6" class="g5_141" />
<path d="M622,421.3l12.2,-50.1" class="g4_141" />
<path d="M634.2,371.2l29.9,0" class="g4_141" />
</svg>