<?xml version="1.0" encoding="UTF-8" standalone="no"?>
<!DOCTYPE svg PUBLIC "-//W3C//DTD SVG 1.1//EN"
"http://www.w3.org/Graphics/SVG/1.1/DTD/svg11.dtd">
<svg viewBox="0 0 1099 824" version="1.1" xmlns="http://www.w3.org/2000/svg" xmlns:xlink="http://www.w3.org/1999/xlink">
<defs>
<clipPath id="c0_78"><path d="M0,825L0,0L1100,0l0,825Z" /></clipPath>
<style type="text/css"><![CDATA[
.g1_78{
fill: #FFFFFF;
}
.g2_78{
fill: none;
stroke: #CC9900;
stroke-width: 2.291514;
stroke-linecap: butt;
stroke-linejoin: miter;
stroke-miterlimit: 7;
}
.g3_78{
fill: none;
stroke: #CC9900;
stroke-width: 2.291514;
stroke-linecap: square;
stroke-linejoin: miter;
stroke-miterlimit: 7;
}
]]></style>
</defs>
<g clip-path="url(#c0_78)">
<path fill-rule="evenodd" d="M0,0.1l1100,0l0,825L0,825.1L0,0.1Z" class="g1_78" />
<path fill-rule="evenodd" d="M0,0.1l1100,0l0,825L0,825.1L0,0.1Z" class="g1_78" />
</g>
<path d="M45.8,100.9l0,-73.3l990,0" class="g2_78" />
<path d="M45.8,27.6l0,0Z" class="g2_78" />
<path d="M1035.8,100.9l0,0Z" class="g2_78" />
<path d="M55,742.6l990,0.2" class="g3_78" />
<image preserveAspectRatio="none" x="416" y="335" width="654" height="441" xlink:href="img/1.png" />
<image preserveAspectRatio="none" x="39" y="122" width="1018" height="208" xlink:href="img/2.png" />
<path fill-rule="evenodd" d="M1026.4,334.7l-21.7,0l0,-47.8l43.4,0l0,47.8l-21.7,0Z" class="g1_78" />
</svg>