<?xml version="1.0" encoding="UTF-8" standalone="no"?>
<!DOCTYPE svg PUBLIC "-//W3C//DTD SVG 1.1//EN"
"http://www.w3.org/Graphics/SVG/1.1/DTD/svg11.dtd">
<svg viewBox="0 0 1099 824" version="1.1" xmlns="http://www.w3.org/2000/svg" xmlns:xlink="http://www.w3.org/1999/xlink">
<defs>
<clipPath id="c0_94"><path d="M0,825L0,0L1100,0l0,825Z" /></clipPath>
<style type="text/css"><![CDATA[
.g1_94{
fill: #FFFFFF;
}
.g2_94{
fill: none;
stroke: #CC9900;
stroke-width: 2.291514;
stroke-linecap: butt;
stroke-linejoin: miter;
stroke-miterlimit: 7;
}
.g3_94{
fill: none;
stroke: #CC9900;
stroke-width: 2.291514;
stroke-linecap: square;
stroke-linejoin: miter;
stroke-miterlimit: 7;
}
.g4_94{
fill: none;
stroke: #000000;
stroke-width: 1.9691069;
stroke-linecap: round;
stroke-linejoin: miter;
stroke-miterlimit: 1;
}
.g5_94{
fill: none;
stroke: #000000;
stroke-width: 1.9302403;
stroke-linecap: round;
stroke-linejoin: miter;
stroke-miterlimit: 1;
}
]]></style>
</defs>
<g clip-path="url(#c0_94)">
<path fill-rule="evenodd" d="M0,0.1l1100,0l0,825L0,825.1L0,0.1Z" class="g1_94" />
<path fill-rule="evenodd" d="M0,0.1l1100,0l0,825L0,825.1L0,0.1Z" class="g1_94" />
</g>
<path d="M45.8,100.9l0,-73.3l990,0" class="g2_94" />
<path d="M45.8,27.6l0,0Z" class="g2_94" />
<path d="M1035.8,100.9l0,0Z" class="g2_94" />
<path d="M55,742.6l990,0.2" class="g3_94" />
<path fill-rule="evenodd" d="M55,174.3l1001.5,0l0,577.5L55,751.8L55,174.3Z" class="g1_94" />
<path d="M692.5,311.3l26.6,0" class="g4_94" />
<path d="M757.3,311.3l26.6,0" class="g4_94" />
<path d="M822.1,311.3l26.6,0" class="g4_94" />
<path d="M893.8,311.3l47.6,0" class="g4_94" />
<path d="M722.3,531.8l26.6,0" class="g5_94" />
<path d="M785.7,531.8l24.6,0" class="g5_94" />
<path d="M847.2,531.8l26.5,0" class="g5_94" />
<path d="M918.5,531.8l47.4,0" class="g5_94" />
</svg>