<?xml version="1.0" encoding="UTF-8" standalone="no"?>
<!DOCTYPE svg PUBLIC "-//W3C//DTD SVG 1.1//EN"
"http://www.w3.org/Graphics/SVG/1.1/DTD/svg11.dtd">
<svg viewBox="0 0 1564 1173" version="1.1" xmlns="http://www.w3.org/2000/svg" xmlns:xlink="http://www.w3.org/1999/xlink">
<defs>
<clipPath id="c0_23"><path d="M0,1173.1L0,0.1l1564.1,0l0,1173Z" /></clipPath>
<style type="text/css"><![CDATA[
.g1_23{
fill: #FFFFFF;
}
.g2_23{
fill: none;
stroke: #000000;
stroke-width: 1.9023737;
stroke-linecap: square;
stroke-linejoin: miter;
stroke-miterlimit: 7;
}
.g3_23{
fill: #00CC99;
}
.g4_23{
fill: #CBECDE;
}
.g5_23{
fill: #E7F6EF;
}
]]></style>
</defs>
<g clip-path="url(#c0_23)">
<path fill-rule="evenodd" d="M0,0.1l1564.1,0l0,1173.2L0,1173.3L0,0.1Z" class="g1_23" />
<path fill-rule="evenodd" d="M0,0.1l1564.3,0l0,1173.2L0,1173.3L0,0.1Z" class="g1_23" />
</g>
<path d="M782.2,1069.3l-691,0l0,-990.8l1381.9,0l0,990.8l-690.9,0Z" class="g2_23" />
<path fill-rule="evenodd" d="M873.9,253.3l192,0l0,59.6l-192,0l0,-59.6Z" class="g3_23" />
<path fill-rule="evenodd" d="M1065.9,253.3l192.4,0l0,59.6l-192.4,0l0,-59.6Z" class="g3_23" />
<path fill-rule="evenodd" d="M1258.3,253.3l192.2,0l0,59.6l-192.2,0l0,-59.6Z" class="g3_23" />
<path fill-rule="evenodd" d="M873.9,312.9l192,0l0,59.7l-192,0l0,-59.7Z" class="g4_23" />
<path fill-rule="evenodd" d="M1065.9,312.9l192.4,0l0,59.7l-192.4,0l0,-59.7Z" class="g4_23" />
<path fill-rule="evenodd" d="M1258.3,312.9l192.2,0l0,59.7l-192.2,0l0,-59.7Z" class="g4_23" />
<path fill-rule="evenodd" d="M873.9,372.6l192,0l0,59.6l-192,0l0,-59.6Z" class="g5_23" />
<path fill-rule="evenodd" d="M1065.9,372.6l192.4,0l0,59.6l-192.4,0l0,-59.6Z" class="g5_23" />
<path fill-rule="evenodd" d="M1258.3,372.6l192.2,0l0,59.6l-192.2,0l0,-59.6Z" class="g5_23" />
<path fill-rule="evenodd" d="M873.9,432.2l192,0l0,59.6l-192,0l0,-59.6Z" class="g4_23" />
<path fill-rule="evenodd" d="M1065.9,432.2l192.4,0l0,59.6l-192.4,0l0,-59.6Z" class="g4_23" />
<path fill-rule="evenodd" d="M1258.3,432.2l192.2,0l0,59.6l-192.2,0l0,-59.6Z" class="g4_23" />
<path fill-rule="evenodd" d="M873.9,491.8l192,0l0,59.4l-192,0l0,-59.4Z" class="g5_23" />
<path fill-rule="evenodd" d="M1065.9,491.8l192.4,0l0,59.4l-192.4,0l0,-59.4Z" class="g5_23" />
<path fill-rule="evenodd" d="M1258.3,491.8l192.2,0l0,59.4l-192.2,0l0,-59.4Z" class="g5_23" />
<path fill-rule="evenodd" d="M873.9,551.2l192,0l0,59.6l-192,0l0,-59.6Z" class="g4_23" />
<path fill-rule="evenodd" d="M1065.9,551.2l192.4,0l0,59.6l-192.4,0l0,-59.6Z" class="g4_23" />
<path fill-rule="evenodd" d="M1258.3,551.2l192.2,0l0,59.6l-192.2,0l0,-59.6Z" class="g4_23" />
<path fill-rule="evenodd" d="M873.9,312.9l-0.2,0.6l-0.1,0l0,-60.5l0.3,0.3l0.3,0.4l0,58.1l-0.3,1.1Z" class="g1_23" />
<path fill-rule="evenodd" d="M1065.9,312.9l-0.3,-1.1l0,-58.1l0.3,-0.4l0.5,0.4l0,58.1l-0.5,1.1Z" class="g1_23" />
<path fill-rule="evenodd" d="M1065.9,253.3l-0.3,0.4l-191.4,0l-0.3,-0.4L873.6,253l192.8,0l-0.5,0.3Z" class="g1_23" />
<path fill-rule="evenodd" d="M1065.9,312.9l-0.3,-1.1l0,-58.1l0.3,-0.4l0.5,0.4l0,58.1l-0.5,1.1Z" class="g1_23" />
<path fill-rule="evenodd" d="M1258.3,312.9l-0.3,-1.1l0,-58.1l0.3,-0.4l0.4,-0.3l0,60.5l-0.3,0l-0.1,-0.6Z" class="g1_23" />
<path fill-rule="evenodd" d="M1258.3,253.3l-0.3,0.4l-191.6,0l-0.5,-0.4l-0.3,-0.3l193.1,0l-0.4,0.3Z" class="g1_23" />
<path fill-rule="evenodd" d="M1258.3,312.9l-0.3,-1.1l0,-58.1l0.3,-0.4l0.4,0.4l0,58.1l-0.4,1.1Z" class="g1_23" />
<path fill-rule="evenodd" d="M1450.5,312.9l-0.3,-1.1l0,-58.1l0.3,-0.4l0.3,-0.3l0,60.5l-0.2,0l-0.1,-0.6Z" class="g1_23" />
<path fill-rule="evenodd" d="M1450.5,253.3l-0.3,0.4l-191.5,0l-0.4,-0.4L1258,253l192.8,0l-0.3,0.3Z" class="g1_23" />
<path fill-rule="evenodd" d="M873.9,372.6l-0.3,0.3l0,-60.7l0.1,0l0.2,0.7l0.3,1.2l0,58l-0.3,0.5Z" class="g1_23" />
<path fill-rule="evenodd" d="M1065.9,372.6l-0.3,-0.5l0,-58l0.3,-1.2l0.5,1.2l0,58l-0.5,0.5Z" class="g1_23" />
<path fill-rule="evenodd" d="M1065.9,312.9l-0.3,1l-191.4,0l-0.3,-1l0.3,-1l191.4,0l0.3,1Z" class="g1_23" />
<path fill-rule="evenodd" d="M1065.9,372.6l-0.3,-0.5l0,-58l0.3,-1.2l0.5,1.2l0,58l-0.5,0.5Z" class="g1_23" />
<path fill-rule="evenodd" d="M1258.3,372.6l-0.3,-0.5l0,-58l0.3,-1.2l0.1,-0.7l0.3,0l0,60.7l-0.4,-0.3Z" class="g1_23" />
<path fill-rule="evenodd" d="M1258.3,312.9l-0.3,1l-191.8,0l-0.3,-1l0.3,-1l191.8,0l0.3,1Z" class="g1_23" />
<path fill-rule="evenodd" d="M1258.3,372.6l-0.3,-0.5l0,-58l0.3,-1.2l0.4,1.2l0,58l-0.4,0.5Z" class="g1_23" />
<path fill-rule="evenodd" d="M1450.5,372.6l-0.3,-0.5l0,-58l0.3,-1.2l0.1,-0.7l0.2,0l0,60.7l-0.3,-0.3Z" class="g1_23" />
<path fill-rule="evenodd" d="M1450.5,312.9l-0.3,1l-191.6,0l-0.3,-1l0.3,-1l191.6,0l0.3,1Z" class="g1_23" />
<path fill-rule="evenodd" d="M873.9,432.2l-0.3,0.3l0,-60.4l0.3,0.5l0.3,0.3l0,58.8l-0.3,0.5Z" class="g1_23" />
<path fill-rule="evenodd" d="M1065.9,432.2l-0.3,-0.5l0,-58.8l0.3,-0.3l0.5,0.3l0,58.8l-0.5,0.5Z" class="g1_23" />
<path fill-rule="evenodd" d="M1065.9,372.6l-0.3,0.3l-191.4,0l-0.3,-0.3l0.3,-0.5l191.4,0l0.3,0.5Z" class="g1_23" />
<path fill-rule="evenodd" d="M1065.9,432.2l-0.3,-0.5l0,-58.8l0.3,-0.3l0.5,0.3l0,58.8l-0.5,0.5Z" class="g1_23" />
<path fill-rule="evenodd" d="M1258.3,432.2l-0.3,-0.5l0,-58.8l0.3,-0.3l0.4,-0.5l0,60.4l-0.4,-0.3Z" class="g1_23" />
<path fill-rule="evenodd" d="M1258.3,372.6l-0.3,0.3l-191.6,0l-0.5,-0.3l0.5,-0.5l191.6,0l0.3,0.5Z" class="g1_23" />
<path fill-rule="evenodd" d="M1258.3,432.2l-0.3,-0.5l0,-58.8l0.3,-0.3l0.4,0.3l0,58.8l-0.4,0.5Z" class="g1_23" />
<path fill-rule="evenodd" d="M1450.5,432.2l-0.3,-0.5l0,-58.8l0.3,-0.3l0.3,-0.5l0,60.4l-0.3,-0.3Z" class="g1_23" />
<path fill-rule="evenodd" d="M1450.5,372.6l-0.3,0.3l-191.5,0l-0.4,-0.3l0.4,-0.5l191.5,0l0.3,0.5Z" class="g1_23" />
<path fill-rule="evenodd" d="M873.9,491.8l-0.3,0.3l0,-60.4l0.3,0.5l0.3,0.3l0,58.8l-0.3,0.5Z" class="g1_23" />
<path fill-rule="evenodd" d="M1065.9,491.8l-0.3,-0.5l0,-58.8l0.3,-0.3l0.5,0.3l0,58.8l-0.5,0.5Z" class="g1_23" />
<path fill-rule="evenodd" d="M1065.9,432.2l-0.3,0.3l-191.4,0l-0.3,-0.3l0.3,-0.5l191.4,0l0.3,0.5Z" class="g1_23" />
<path fill-rule="evenodd" d="M1065.9,491.8l-0.3,-0.5l0,-58.8l0.3,-0.3l0.5,0.3l0,58.8l-0.5,0.5Z" class="g1_23" />
<path fill-rule="evenodd" d="M1258.3,491.8l-0.3,-0.5l0,-58.8l0.3,-0.3l0.4,-0.5l0,60.4l-0.4,-0.3Z" class="g1_23" />
<path fill-rule="evenodd" d="M1258.3,432.2l-0.3,0.3l-191.6,0l-0.5,-0.3l0.5,-0.5l191.6,0l0.3,0.5Z" class="g1_23" />
<path fill-rule="evenodd" d="M1258.3,491.8l-0.3,-0.5l0,-58.8l0.3,-0.3l0.4,0.3l0,58.8l-0.4,0.5Z" class="g1_23" />
<path fill-rule="evenodd" d="M1450.5,491.8l-0.3,-0.5l0,-58.8l0.3,-0.3l0.3,-0.5l0,60.4l-0.3,-0.3Z" class="g1_23" />
<path fill-rule="evenodd" d="M1450.5,432.2l-0.3,0.3l-191.5,0l-0.4,-0.3l0.4,-0.5l191.5,0l0.3,0.5Z" class="g1_23" />
<path fill-rule="evenodd" d="M873.9,551.2l-0.3,0.4l0,-60.3l0.3,0.5l0.3,0.3l0,58.8l-0.3,0.3Z" class="g1_23" />
<path fill-rule="evenodd" d="M1065.9,551.2l-0.3,-0.3l0,-58.8l0.3,-0.3l0.5,0.3l0,58.8l-0.5,0.3Z" class="g1_23" />
<path fill-rule="evenodd" d="M1065.9,491.8l-0.3,0.3l-191.4,0l-0.3,-0.3l0.3,-0.5l191.4,0l0.3,0.5Z" class="g1_23" />
<path fill-rule="evenodd" d="M1065.9,551.2l-0.3,-0.3l0,-58.8l0.3,-0.3l0.5,0.3l0,58.8l-0.5,0.3Z" class="g1_23" />
<path fill-rule="evenodd" d="M1258.3,551.2l-0.3,-0.3l0,-58.8l0.3,-0.3l0.4,-0.5l0,60.3l-0.4,-0.4Z" class="g1_23" />
<path fill-rule="evenodd" d="M1258.3,491.8l-0.3,0.3l-191.6,0l-0.5,-0.3l0.5,-0.5l191.6,0l0.3,0.5Z" class="g1_23" />
<path fill-rule="evenodd" d="M1258.3,551.2l-0.3,-0.3l0,-58.8l0.3,-0.3l0.4,0.3l0,58.8l-0.4,0.3Z" class="g1_23" />
<path fill-rule="evenodd" d="M1450.5,551.2l-0.3,-0.3l0,-58.8l0.3,-0.3l0.3,-0.5l0,60.3l-0.3,-0.4Z" class="g1_23" />
<path fill-rule="evenodd" d="M1450.5,491.8l-0.3,0.3l-191.5,0l-0.4,-0.3l0.4,-0.5l191.5,0l0.3,0.5Z" class="g1_23" />
<path fill-rule="evenodd" d="M873.9,610.8l-0.3,0.4l0,-60.3l0.3,0.3l0.3,0.4l0,58.9l-0.3,0.3Z" class="g1_23" />
<path fill-rule="evenodd" d="M1065.9,610.8l0.5,0.4l-192.8,0l0.3,-0.4l0.3,-0.3l191.4,0l0.3,0.3Z" class="g1_23" />
<path fill-rule="evenodd" d="M1065.9,610.8l-0.3,-0.3l0,-58.9l0.3,-0.4l0.5,0.4l0,58.9l-0.5,0.3Z" class="g1_23" />
<path fill-rule="evenodd" d="M1065.9,551.2l-0.3,0.4l-191.4,0l-0.3,-0.4l0.3,-0.3l191.4,0l0.3,0.3Z" class="g1_23" />
<path fill-rule="evenodd" d="M1065.9,610.8l-0.3,-0.3l0,-58.9l0.3,-0.4l0.5,0.4l0,58.9l-0.5,0.3Z" class="g1_23" />
<path fill-rule="evenodd" d="M1258.3,610.8l0.4,0.4l-193.1,0l0.3,-0.4l0.5,-0.3l191.6,0l0.3,0.3Z" class="g1_23" />
<path fill-rule="evenodd" d="M1258.3,610.8l-0.3,-0.3l0,-58.9l0.3,-0.4l0.4,-0.3l0,60.3l-0.4,-0.4Z" class="g1_23" />
<path fill-rule="evenodd" d="M1258.3,551.2l-0.3,0.4l-191.6,0l-0.5,-0.4l0.5,-0.3l191.6,0l0.3,0.3Z" class="g1_23" />
<path fill-rule="evenodd" d="M1258.3,610.8l-0.3,-0.3l0,-58.9l0.3,-0.4l0.4,0.4l0,58.9l-0.4,0.3Z" class="g1_23" />
<path fill-rule="evenodd" d="M1450.5,610.8l0.3,0.4l-192.8,0l0.3,-0.4l0.4,-0.3l191.5,0l0.3,0.3Z" class="g1_23" />
<path fill-rule="evenodd" d="M1450.5,610.8l-0.3,-0.3l0,-58.9l0.3,-0.4l0.3,-0.3l0,60.3l-0.3,-0.4Z" class="g1_23" />
<path fill-rule="evenodd" d="M1450.5,551.2l-0.3,0.4l-191.5,0l-0.4,-0.4l0.4,-0.3l191.5,0l0.3,0.3Z" class="g1_23" />
</svg>