<?xml version="1.0" encoding="UTF-8" standalone="no"?>
<!DOCTYPE svg PUBLIC "-//W3C//DTD SVG 1.1//EN"
"http://www.w3.org/Graphics/SVG/1.1/DTD/svg11.dtd">
<svg viewBox="0 0 1099 824" version="1.1" xmlns="http://www.w3.org/2000/svg" xmlns:xlink="http://www.w3.org/1999/xlink">
<defs>
<clipPath id="c0_144"><path d="M0,825L0,0L1100,0l0,825Z" /></clipPath>
<style type="text/css"><![CDATA[
.g1_144{
fill: #FFFFFF;
}
.g2_144{
fill: none;
stroke: #CC9900;
stroke-width: 2.291514;
stroke-linecap: butt;
stroke-linejoin: miter;
stroke-miterlimit: 7;
}
.g3_144{
fill: none;
stroke: #CC9900;
stroke-width: 2.291514;
stroke-linecap: square;
stroke-linejoin: miter;
stroke-miterlimit: 7;
}
.g4_144{
fill: none;
stroke: #000000;
stroke-width: 2.137972;
stroke-linecap: round;
stroke-linejoin: miter;
stroke-miterlimit: 1;
}
.g5_144{
fill: none;
stroke: #000000;
stroke-width: 4.275944;
stroke-linecap: round;
stroke-linejoin: miter;
stroke-miterlimit: 1;
}
]]></style>
</defs>
<g clip-path="url(#c0_144)">
<path fill-rule="evenodd" d="M0,0.1l1100,0l0,825L0,825.1L0,0.1Z" class="g1_144" />
<path fill-rule="evenodd" d="M0,0.1l1100,0l0,825L0,825.1L0,0.1Z" class="g1_144" />
</g>
<path d="M45.8,100.9l0,-73.3l990,0" class="g2_144" />
<path d="M45.8,27.6l0,0Z" class="g2_144" />
<path d="M1035.8,100.9l0,0Z" class="g2_144" />
<path d="M55,742.6l990,0.2" class="g3_144" />
<path d="M450.7,531.3l5.8,-3.5" class="g4_144" />
<path d="M456.5,528.9l8.6,15.9" class="g5_144" />
<path d="M466.1,544.8l11.8,-48" class="g4_144" />
<path d="M477.9,496.8l28.6,0" class="g4_144" />
<path d="M787.9,531.3l5.9,-3.5" class="g4_144" />
<path d="M793.8,528.9l8.6,15.9" class="g5_144" />
<path d="M803.5,544.8l11.7,-48" class="g4_144" />
<path d="M815.2,496.8l28.6,0" class="g4_144" />
</svg>