<?xml version="1.0" encoding="UTF-8" standalone="no"?>
<!DOCTYPE svg PUBLIC "-//W3C//DTD SVG 1.1//EN"
"http://www.w3.org/Graphics/SVG/1.1/DTD/svg11.dtd">
<svg viewBox="0 0 1099 824" version="1.1" xmlns="http://www.w3.org/2000/svg" xmlns:xlink="http://www.w3.org/1999/xlink">
<defs>
<clipPath id="c0_152"><path d="M0,825L0,0L1100,0l0,825Z" /></clipPath>
<style type="text/css"><![CDATA[
.g1_152{
fill: #FFFFFF;
}
.g2_152{
fill: none;
stroke: #CC9900;
stroke-width: 2.291514;
stroke-linecap: butt;
stroke-linejoin: miter;
stroke-miterlimit: 7;
}
.g3_152{
fill: none;
stroke: #CC9900;
stroke-width: 2.291514;
stroke-linecap: square;
stroke-linejoin: miter;
stroke-miterlimit: 7;
}
.g4_152{
fill: #66FF33;
}
.g5_152{
fill: none;
stroke: #000000;
stroke-width: 1.1241388;
stroke-linecap: square;
stroke-linejoin: miter;
stroke-miterlimit: 7;
}
.g6_152{
fill: #FF0000;
}
.g7_152{
fill: none;
stroke: #FF0000;
stroke-width: 1.1241388;
stroke-linecap: square;
stroke-linejoin: miter;
stroke-miterlimit: 7;
}
.g8_152{
}
.g9_152{
fill: none;
stroke: #000000;
stroke-width: 3.4156528;
stroke-linecap: square;
stroke-linejoin: miter;
stroke-miterlimit: 7;
}
.g10_152{
fill: #000080;
}
]]></style>
</defs>
<g clip-path="url(#c0_152)">
<path fill-rule="evenodd" d="M0,0.1l1100,0l0,825L0,825.1L0,0.1Z" class="g1_152" />
<path fill-rule="evenodd" d="M0,0.1l1100,0l0,825L0,825.1L0,0.1Z" class="g1_152" />
</g>
<path d="M45.8,100.9l0,-73.3l990,0" class="g2_152" />
<path d="M45.8,27.6l0,0Z" class="g2_152" />
<path d="M1035.8,100.9l0,0Z" class="g2_152" />
<path d="M55,742.6l990,0.2" class="g3_152" />
<path fill-rule="evenodd" d="M158.3,257.2c5.2,0,9.1,4,9.1,9.2c0,5.2,-3.9,9.2,-9.1,9.2c-5.2,0,-9.2,-4,-9.2,-9.2c0,-5.2,4,-9.2,9.2,-9.2Z" class="g4_152" />
<path d="M158.3,257.2c5.2,0,9.1,4,9.1,9.2c0,5.2,-3.9,9.2,-9.1,9.2c-5.2,0,-9.2,-4,-9.2,-9.2c0,-5.2,4,-9.2,9.2,-9.2Z" class="g5_152" />
<path fill-rule="evenodd" d="M424.1,339.7c5.2,0,9.2,4,9.2,9.2c0,5.2,-4,9.2,-9.2,9.2c-5.2,0,-9.2,-4,-9.2,-9.2c0,-5.2,4,-9.2,9.2,-9.2Z" class="g6_152" />
<path d="M424.1,339.7c5.2,0,9.2,4,9.2,9.2c0,5.2,-4,9.2,-9.2,9.2c-5.2,0,-9.2,-4,-9.2,-9.2c0,-5.2,4,-9.2,9.2,-9.2Z" class="g7_152" />
<path fill-rule="evenodd" d="M488.3,523.2c5.2,0,9.1,4,9.1,9.2c0,5.2,-3.9,9.2,-9.1,9.2c-5.2,0,-9.2,-4,-9.2,-9.2c0,-5.2,4,-9.2,9.2,-9.2Z" class="g8_152" />
<path d="M488.3,523.2c5.2,0,9.1,4,9.1,9.2c0,5.2,-3.9,9.2,-9.1,9.2c-5.2,0,-9.2,-4,-9.2,-9.2c0,-5.2,4,-9.2,9.2,-9.2Z" class="g5_152" />
<path fill-rule="evenodd" d="M176.6,321.6c5.2,0,9.2,3.8,9.2,9c0,5.2,-4,9.1,-9.2,9.1c-5.2,0,-9.2,-3.9,-9.2,-9.1c0,-5.2,4,-9,9.2,-9Z" class="g4_152" />
<path d="M176.6,321.6c5.2,0,9.2,3.8,9.2,9c0,5.2,-4,9.1,-9.2,9.1c-5.2,0,-9.2,-3.9,-9.2,-9.1c0,-5.2,4,-9,9.2,-9Z" class="g5_152" />
<path fill-rule="evenodd" d="M194.9,449.7c5.2,0,9.2,4,9.2,9.2c0,5.2,-4,9.2,-9.2,9.2c-5.2,0,-9.1,-4,-9.1,-9.2c0,-5.2,3.9,-9.2,9.1,-9.2Z" class="g4_152" />
<path d="M194.9,449.7c5.2,0,9.2,4,9.2,9.2c0,5.2,-4,9.2,-9.2,9.2c-5.2,0,-9.1,-4,-9.1,-9.2c0,-5.2,3.9,-9.2,9.1,-9.2Z" class="g5_152" />
<path fill-rule="evenodd" d="M304.9,257.2c5.2,0,9.2,4,9.2,9.2c0,5.2,-4,9.2,-9.2,9.2c-5.2,0,-9.1,-4,-9.1,-9.2c0,-5.2,3.9,-9.2,9.1,-9.2Z" class="g4_152" />
<path d="M304.9,257.2c5.2,0,9.2,4,9.2,9.2c0,5.2,-4,9.2,-9.2,9.2c-5.2,0,-9.1,-4,-9.1,-9.2c0,-5.2,3.9,-9.2,9.1,-9.2Z" class="g5_152" />
<path fill-rule="evenodd" d="M121.6,376.6c5.2,0,9.2,3.8,9.2,9c0,5.2,-4,9.1,-9.2,9.1c-5.2,0,-9.2,-3.9,-9.2,-9.1c0,-5.2,4,-9,9.2,-9Z" class="g4_152" />
<path d="M121.6,376.6c5.2,0,9.2,3.8,9.2,9c0,5.2,-4,9.1,-9.2,9.1c-5.2,0,-9.2,-3.9,-9.2,-9.1c0,-5.2,4,-9,9.2,-9Z" class="g5_152" />
<path fill-rule="evenodd" d="M249.9,349.1c5.2,0,9.2,3.8,9.2,9c0,5.2,-4,9.1,-9.2,9.1c-5.2,0,-9.1,-3.9,-9.1,-9.1c0,-5.2,3.9,-9,9.1,-9Z" class="g4_152" />
<path d="M249.9,349.1c5.2,0,9.2,3.8,9.2,9c0,5.2,-4,9.1,-9.2,9.1c-5.2,0,-9.1,-3.9,-9.1,-9.1c0,-5.2,3.9,-9,9.1,-9Z" class="g5_152" />
<path fill-rule="evenodd" d="M332.4,303.2c5.2,0,9.2,4,9.2,9.2c0,5.2,-4,9.2,-9.2,9.2c-5.2,0,-9.1,-4,-9.1,-9.2c0,-5.2,3.9,-9.2,9.1,-9.2Z" class="g4_152" />
<path d="M332.4,303.2c5.2,0,9.2,4,9.2,9.2c0,5.2,-4,9.2,-9.2,9.2c-5.2,0,-9.1,-4,-9.1,-9.2c0,-5.2,3.9,-9.2,9.1,-9.2Z" class="g5_152" />
<path fill-rule="evenodd" d="M286.6,449.7c5.2,0,9.2,4,9.2,9.2c0,5.2,-4,9.2,-9.2,9.2c-5.2,0,-9.2,-4,-9.2,-9.2c0,-5.2,4,-9.2,9.2,-9.2Z" class="g4_152" />
<path d="M286.6,449.7c5.2,0,9.2,4,9.2,9.2c0,5.2,-4,9.2,-9.2,9.2c-5.2,0,-9.2,-4,-9.2,-9.2c0,-5.2,4,-9.2,9.2,-9.2Z" class="g5_152" />
<path fill-rule="evenodd" d="M442.4,229.7c5.2,0,9.2,4,9.2,9.2c0,5.2,-4,9.2,-9.2,9.2c-5.1,0,-9.1,-4,-9.1,-9.2c0,-5.2,4,-9.2,9.1,-9.2Z" class="g6_152" />
<path d="M442.4,229.7c5.2,0,9.2,4,9.2,9.2c0,5.2,-4,9.2,-9.2,9.2c-5.1,0,-9.1,-4,-9.1,-9.2c0,-5.2,4,-9.2,9.1,-9.2Z" class="g7_152" />
<path fill-rule="evenodd" d="M460.8,413.2c5.2,0,9.1,4,9.1,9.2c0,5.2,-3.9,9.2,-9.1,9.2c-5.2,0,-9.2,-4,-9.2,-9.2c0,-5.2,4,-9.2,9.2,-9.2Z" class="g6_152" />
<path d="M460.8,413.2c5.2,0,9.1,4,9.1,9.2c0,5.2,-3.9,9.2,-9.1,9.2c-5.2,0,-9.2,-4,-9.2,-9.2c0,-5.2,4,-9.2,9.2,-9.2Z" class="g7_152" />
<path fill-rule="evenodd" d="M479.1,266.6c5.2,0,9.2,3.8,9.2,9c0,5.2,-4,9.1,-9.2,9.1c-5.2,0,-9.2,-3.9,-9.2,-9.1c0,-5.2,4,-9,9.2,-9Z" class="g6_152" />
<path d="M479.1,266.6c5.2,0,9.2,3.8,9.2,9c0,5.2,-4,9.1,-9.2,9.1c-5.2,0,-9.2,-3.9,-9.2,-9.1c0,-5.2,4,-9,9.2,-9Z" class="g7_152" />
<path fill-rule="evenodd" d="M607.4,284.7c5.2,0,9.2,4,9.2,9.2c0,5.2,-4,9.2,-9.2,9.2c-5.1,0,-9.1,-4,-9.1,-9.2c0,-5.2,4,-9.2,9.1,-9.2Z" class="g6_152" />
<path d="M607.4,284.7c5.2,0,9.2,4,9.2,9.2c0,5.2,-4,9.2,-9.2,9.2c-5.1,0,-9.1,-4,-9.1,-9.2c0,-5.2,4,-9.2,9.1,-9.2Z" class="g7_152" />
<path fill-rule="evenodd" d="M515.8,303.2c5.2,0,9.1,4,9.1,9.2c0,5.2,-3.9,9.2,-9.1,9.2c-5.2,0,-9.2,-4,-9.2,-9.2c0,-5.2,4,-9.2,9.2,-9.2Z" class="g6_152" />
<path d="M515.8,303.2c5.2,0,9.1,4,9.1,9.2c0,5.2,-3.9,9.2,-9.1,9.2c-5.2,0,-9.2,-4,-9.2,-9.2c0,-5.2,4,-9.2,9.2,-9.2Z" class="g7_152" />
<path fill-rule="evenodd" d="M414.9,541.6c5.2,0,9.2,3.8,9.2,9c0,5.2,-4,9.1,-9.2,9.1c-5.1,0,-9.1,-3.9,-9.1,-9.1c0,-5.2,4,-9,9.1,-9Z" class="g8_152" />
<path d="M414.9,541.6c5.2,0,9.2,3.8,9.2,9c0,5.2,-4,9.1,-9.2,9.1c-5.1,0,-9.1,-3.9,-9.1,-9.1c0,-5.2,4,-9,9.1,-9Z" class="g5_152" />
<path fill-rule="evenodd" d="M479.1,651.6c5.2,0,9.2,3.8,9.2,9c0,5.2,-4,9.1,-9.2,9.1c-5.2,0,-9.2,-3.9,-9.2,-9.1c0,-5.2,4,-9,9.2,-9Z" class="g8_152" />
<path d="M479.1,651.6c5.2,0,9.2,3.8,9.2,9c0,5.2,-4,9.1,-9.2,9.1c-5.2,0,-9.2,-3.9,-9.2,-9.1c0,-5.2,4,-9,9.2,-9Z" class="g5_152" />
<path fill-rule="evenodd" d="M543.3,578.2c5.2,0,9.1,4,9.1,9.2c0,5.2,-3.9,9.2,-9.1,9.2c-5.2,0,-9.2,-4,-9.2,-9.2c0,-5.2,4,-9.2,9.2,-9.2Z" class="g8_152" />
<path d="M543.3,578.2c5.2,0,9.1,4,9.1,9.2c0,5.2,-3.9,9.2,-9.1,9.2c-5.2,0,-9.2,-4,-9.2,-9.2c0,-5.2,4,-9.2,9.2,-9.2Z" class="g5_152" />
<path fill-rule="evenodd" d="M771.4,186.7c5.2,0,9.1,3.9,9.1,9.1c0,5.2,-3.9,9.2,-9.1,9.2c-5.2,0,-9.2,-4,-9.2,-9.2c0,-5.2,4,-9.1,9.2,-9.1Z" class="g4_152" />
<path d="M771.4,186.7c5.2,0,9.1,3.9,9.1,9.1c0,5.2,-3.9,9.2,-9.1,9.2c-5.2,0,-9.2,-4,-9.2,-9.2c0,-5.2,4,-9.1,9.2,-9.1Z" class="g5_152" />
<path fill-rule="evenodd" d="M771.4,241.7c5.2,0,9.1,3.9,9.1,9.1c0,5.2,-3.9,9.2,-9.1,9.2c-5.2,0,-9.2,-4,-9.2,-9.2c0,-5.2,4,-9.1,9.2,-9.1Z" class="g6_152" />
<path d="M771.4,241.7c5.2,0,9.1,3.9,9.1,9.1c0,5.2,-3.9,9.2,-9.1,9.2c-5.2,0,-9.2,-4,-9.2,-9.2c0,-5.2,4,-9.1,9.2,-9.1Z" class="g7_152" />
<path fill-rule="evenodd" d="M771.4,296.7c5.2,0,9.1,3.9,9.1,9.1c0,5.2,-3.9,9.2,-9.1,9.2c-5.2,0,-9.2,-4,-9.2,-9.2c0,-5.2,4,-9.1,9.2,-9.1Z" class="g8_152" />
<path d="M771.4,296.7c5.2,0,9.1,3.9,9.1,9.1c0,5.2,-3.9,9.2,-9.1,9.2c-5.2,0,-9.2,-4,-9.2,-9.2c0,-5.2,4,-9.1,9.2,-9.1Z" class="g5_152" />
<path d="M717.4,165.7l0.3,531.7" class="g9_152" />
<path d="M309.5,239.1c85.7,0,151.1,51.4,151.1,119c0,67.3,-65.4,118.8,-151.1,118.8c-85.7,0,-151.2,-51.5,-151.2,-118.8c0,-67.6,65.5,-119,151.2,-119Z" class="g5_152" />
<path fill-rule="evenodd" d="M302.7,370l-9.2,0l0,-18.2l18.2,0l0,18.2l-9,0Z" class="g10_152" />
<path d="M302.7,370l-9.2,0l0,-18.2l18.2,0l0,18.2l-9,0Z" class="g5_152" />
<path fill-rule="evenodd" d="M983.6,534.4l-9,0l0,-18.1l18,0l0,18.1l-9,0Z" class="g10_152" />
<path d="M983.6,534.4l-9,0l0,-18.1l18,0l0,18.1l-9,0Z" class="g5_152" />
<path fill-rule="evenodd" d="M1012.8,486.9l-9,0l0,-18.1l18.1,0l0,18.1l-9.1,0Z" class="g10_152" />
<path d="M1012.8,486.9l-9,0l0,-18.1l18.1,0l0,18.1l-9.1,0Z" class="g5_152" />
</svg>