<?xml version="1.0" encoding="UTF-8" standalone="no"?>
<!DOCTYPE svg PUBLIC "-//W3C//DTD SVG 1.1//EN"
"http://www.w3.org/Graphics/SVG/1.1/DTD/svg11.dtd">
<svg viewBox="0 0 1564 1173" version="1.1" xmlns="http://www.w3.org/2000/svg" xmlns:xlink="http://www.w3.org/1999/xlink">
<defs>
<clipPath id="c0_18"><path d="M0,1173.1L0,0.1l1564.1,0l0,1173Z" /></clipPath>
<style type="text/css"><![CDATA[
.g1_18{
fill: #FFFFFF;
}
.g2_18{
fill: none;
stroke: #000000;
stroke-width: 1.9023737;
stroke-linecap: square;
stroke-linejoin: miter;
stroke-miterlimit: 7;
}
.g3_18{
fill: none;
stroke: #000000;
stroke-width: 2.2916667;
stroke-linecap: butt;
stroke-linejoin: miter;
}
.g4_18{
fill: none;
stroke: #000000;
stroke-width: 1.1241388;
stroke-linecap: square;
stroke-linejoin: miter;
stroke-miterlimit: 7;
}
]]></style>
</defs>
<g clip-path="url(#c0_18)">
<path fill-rule="evenodd" d="M0,0.1l1564.1,0l0,1173.2L0,1173.3L0,0.1Z" class="g1_18" />
<path fill-rule="evenodd" d="M0,0.1l1564.3,0l0,1173.2L0,1173.3L0,0.1Z" class="g1_18" />
</g>
<path d="M782.2,1069.3l-691,0l0,-990.8l1381.9,0l0,990.8l-690.9,0Z" class="g2_18" />
<path d="M454.1,312.7l166.5,0" class="g3_18" />
<path d="M729.7,312.7l222.6,0" class="g3_18" />
<path fill-rule="evenodd" d="M349.6,780.5l-48.2,0l0,-104.2l96.4,0l0,104.2l-48.2,0Z" class="g1_18" />
<path d="M349.6,780.5l-48.2,0l0,-104.2l96.4,0l0,104.2l-48.2,0Z" class="g4_18" />
<path fill-rule="evenodd" d="M446.1,780.5l-48.3,0l0,-104.2l96.6,0l0,104.2l-48.3,0Z" class="g1_18" />
<path d="M446.1,780.5l-48.3,0l0,-104.2l96.6,0l0,104.2l-48.3,0Z" class="g4_18" />
<path fill-rule="evenodd" d="M542.7,780.5l-48.3,0l0,-104.2l96.4,0l0,104.2l-48.1,0Z" class="g1_18" />
<path d="M542.7,780.5l-48.3,0l0,-104.2l96.4,0l0,104.2l-48.1,0Z" class="g4_18" />
<path fill-rule="evenodd" d="M639.1,780.5l-48.3,0l0,-104.2l96.5,0l0,104.2l-48.2,0Z" class="g1_18" />
<path d="M639.1,780.5l-48.3,0l0,-104.2l96.5,0l0,104.2l-48.2,0Z" class="g4_18" />
<path fill-rule="evenodd" d="M735.6,780.5l-48.3,0l0,-104.2l96.5,0l0,104.2l-48.2,0Z" class="g1_18" />
<path d="M735.6,780.5l-48.3,0l0,-104.2l96.5,0l0,104.2l-48.2,0Z" class="g4_18" />
<path fill-rule="evenodd" d="M832,780.5l-48.2,0l0,-104.2l96.5,0l0,104.2l-48.3,0Z" class="g1_18" />
<path d="M832,780.5l-48.2,0l0,-104.2l96.5,0l0,104.2l-48.3,0Z" class="g4_18" />
<path fill-rule="evenodd" d="M928.6,780.5l-48.3,0l0,-104.2l96.6,0l0,104.2l-48.3,0Z" class="g1_18" />
<path d="M928.6,780.5l-48.3,0l0,-104.2l96.6,0l0,104.2l-48.3,0Z" class="g4_18" />
<path fill-rule="evenodd" d="M1025,780.5l-48.1,0l0,-104.2l96.4,0l0,104.2l-48.3,0Z" class="g1_18" />
<path d="M1025,780.5l-48.1,0l0,-104.2l96.4,0l0,104.2l-48.3,0Z" class="g4_18" />
</svg>