<?xml version="1.0" encoding="UTF-8" standalone="no"?>
<!DOCTYPE svg PUBLIC "-//W3C//DTD SVG 1.1//EN"
"http://www.w3.org/Graphics/SVG/1.1/DTD/svg11.dtd">
<svg viewBox="0 0 1099 824" version="1.1" xmlns="http://www.w3.org/2000/svg" xmlns:xlink="http://www.w3.org/1999/xlink">
<defs>
<clipPath id="c0_158"><path d="M0,825L0,0L1100,0l0,825Z" /></clipPath>
<style type="text/css"><![CDATA[
.g1_158{
fill: #FFFFFF;
}
.g2_158{
fill: none;
stroke: #CC9900;
stroke-width: 2.291514;
stroke-linecap: butt;
stroke-linejoin: miter;
stroke-miterlimit: 7;
}
.g3_158{
fill: none;
stroke: #CC9900;
stroke-width: 2.291514;
stroke-linecap: square;
stroke-linejoin: miter;
stroke-miterlimit: 7;
}
.g4_158{
}
]]></style>
</defs>
<g clip-path="url(#c0_158)">
<path fill-rule="evenodd" d="M0,0.1l1100,0l0,825L0,825.1L0,0.1Z" class="g1_158" />
<path fill-rule="evenodd" d="M0,0.1l1100,0l0,825L0,825.1L0,0.1Z" class="g1_158" />
</g>
<path d="M45.8,100.9l0,-73.3l990,0" class="g2_158" />
<path d="M45.8,27.6l0,0Z" class="g2_158" />
<path d="M1035.8,100.9l0,0Z" class="g2_158" />
<path d="M55,742.6l990,0.2" class="g3_158" />
<path fill-rule="evenodd" d="M55,291.5l-0.3,0.3l0,-99.5l0.3,0.3l0.3,0.3l0,98.4L55,291.5Z" class="g4_158" />
<path fill-rule="evenodd" d="M462.8,291.5l-0.2,-0.2l0,-98.2l0.2,-0.5l0.1,0.5l0,98.2l-0.1,0.2Z" class="g4_158" />
<path fill-rule="evenodd" d="M462.8,192.6l-0.2,0.3l-407.3,0L55,192.6l-0.3,-0.3l408.2,0l-0.1,0.3Z" class="g4_158" />
<path fill-rule="evenodd" d="M462.8,291.5l-0.2,-0.2l0,-98.2l0.2,-0.5l0.1,0.5l0,98.2l-0.1,0.2Z" class="g4_158" />
<path fill-rule="evenodd" d="M530.6,291.5l-0.2,-0.2l0,-98.2l0.2,-0.5l0.1,0.5l0,98.2l-0.1,0.2Z" class="g4_158" />
<path fill-rule="evenodd" d="M530.6,192.6l-0.2,0.3l-67.5,0l-0.1,-0.3l-0.2,-0.3l68.1,0l-0.1,0.3Z" class="g4_158" />
<path fill-rule="evenodd" d="M530.6,291.5l-0.2,-0.2l0,-98.2l0.2,-0.5l0.1,0.5l0,98.2l-0.1,0.2Z" class="g4_158" />
<path fill-rule="evenodd" d="M608.4,291.5l-0.2,-0.2l0,-98.2l0.2,-0.5l0.1,0.5l0,98.2l-0.1,0.2Z" class="g4_158" />
<path fill-rule="evenodd" d="M608.4,192.6l-0.2,0.3l-77.5,0l-0.1,-0.3l-0.2,-0.3l78.1,0l-0.1,0.3Z" class="g4_158" />
<path fill-rule="evenodd" d="M608.4,291.5l-0.2,-0.2l0,-98.2l0.2,-0.5l0.1,0.5l0,98.2l-0.1,0.2Z" class="g4_158" />
<path fill-rule="evenodd" d="M676.3,291.5l-0.1,-0.2l0,-98.2l0.1,-0.5l0.2,0.5l0,98.2l-0.2,0.2Z" class="g4_158" />
<path fill-rule="evenodd" d="M676.3,192.6l-0.1,0.3l-67.7,0l-0.1,-0.3l-0.2,-0.3l68.3,0l-0.2,0.3Z" class="g4_158" />
<path fill-rule="evenodd" d="M676.3,291.5l-0.1,-0.2l0,-98.2l0.1,-0.5l0.2,0.5l0,98.2l-0.2,0.2Z" class="g4_158" />
<path fill-rule="evenodd" d="M753.8,291.5l-0.1,-0.2l0,-98.2l0.1,-0.5l0.2,0.5l0,98.2l-0.2,0.2Z" class="g4_158" />
<path fill-rule="evenodd" d="M753.8,192.6l-0.1,0.3l-77.2,0l-0.2,-0.3l-0.1,-0.3l77.8,0l-0.2,0.3Z" class="g4_158" />
<path fill-rule="evenodd" d="M753.8,291.5l-0.1,-0.2l0,-98.2l0.1,-0.5l0.2,0.5l0,98.2l-0.2,0.2Z" class="g4_158" />
<path fill-rule="evenodd" d="M831.6,291.5l-0.2,-0.2l0,-98.2l0.2,-0.5l0.3,0.5l0,98.2l-0.3,0.2Z" class="g4_158" />
<path fill-rule="evenodd" d="M831.6,192.6l-0.2,0.3l-77.4,0l-0.2,-0.3l-0.1,-0.3l78.2,0l-0.3,0.3Z" class="g4_158" />
<path fill-rule="evenodd" d="M831.6,291.5l-0.2,-0.2l0,-98.2l0.2,-0.5l0.3,0.5l0,98.2l-0.3,0.2Z" class="g4_158" />
<path fill-rule="evenodd" d="M899.6,291.5l-0.2,-0.2l0,-98.2l0.2,-0.5l0.3,0.5l0,98.2l-0.3,0.2Z" class="g4_158" />
<path fill-rule="evenodd" d="M899.6,192.6l-0.2,0.3l-67.5,0l-0.3,-0.3l-0.2,-0.3l68.5,0l-0.3,0.3Z" class="g4_158" />
<path fill-rule="evenodd" d="M899.6,291.5l-0.2,-0.2l0,-98.2l0.2,-0.5l0.3,0.5l0,98.2l-0.3,0.2Z" class="g4_158" />
<path fill-rule="evenodd" d="M967.4,291.5l-0.2,-0.2l0,-98.2l0.2,-0.5l0.1,-0.3l0,99.5l-0.1,-0.3Z" class="g4_158" />
<path fill-rule="evenodd" d="M967.4,192.6l-0.2,0.3l-67.3,0l-0.3,-0.3l-0.2,-0.3l68.1,0l-0.1,0.3Z" class="g4_158" />
<path fill-rule="evenodd" d="M967.4,291.5l-0.2,-0.2l0,-98.2l0.2,-0.5l0.1,0.5l0,98.2l-0.1,0.2Z" class="g4_158" />
<path fill-rule="evenodd" d="M1045.2,291.5l-0.4,-0.2l0,-98.4l0.4,-0.3l0.3,-0.3l0,99.5l-0.3,-0.3Z" class="g4_158" />
<path fill-rule="evenodd" d="M1045.2,192.6l-0.4,0.3l-77.3,0l-0.1,-0.3l-0.2,-0.3l78.3,0l-0.3,0.3Z" class="g4_158" />
<path fill-rule="evenodd" d="M55,390.8l-0.3,0.1l0,-99.6l0.3,0.2l0.3,0.3l0,98.7L55,390.8Z" class="g4_158" />
<path fill-rule="evenodd" d="M462.8,390.8l-0.2,-0.3l0,-98.7l0.2,-0.3l0.1,0.3l0,98.7l-0.1,0.3Z" class="g4_158" />
<path fill-rule="evenodd" d="M462.8,291.5l-0.2,0.3l-407.1,0L55,291.5l0.5,-0.2l407.1,0l0.2,0.2Z" class="g4_158" />
<path fill-rule="evenodd" d="M462.8,390.8l-0.2,-0.3l0,-98.7l0.2,-0.3l0.1,0.3l0,98.7l-0.1,0.3Z" class="g4_158" />
<path fill-rule="evenodd" d="M530.6,390.8l-0.2,-0.3l0,-98.7l0.2,-0.3l0.1,0.3l0,98.7l-0.1,0.3Z" class="g4_158" />
<path fill-rule="evenodd" d="M530.6,291.5l-0.2,0.3l-67.5,0l-0.1,-0.3l0.1,-0.2l67.5,0l0.2,0.2Z" class="g4_158" />
<path fill-rule="evenodd" d="M530.6,390.8l-0.2,-0.3l0,-98.7l0.2,-0.3l0.1,0.3l0,98.7l-0.1,0.3Z" class="g4_158" />
<path fill-rule="evenodd" d="M608.4,390.8l-0.2,-0.3l0,-98.7l0.2,-0.3l0.1,0.3l0,98.7l-0.1,0.3Z" class="g4_158" />
<path fill-rule="evenodd" d="M608.4,291.5l-0.2,0.3l-77.5,0l-0.1,-0.3l0.1,-0.2l77.5,0l0.2,0.2Z" class="g4_158" />
<path fill-rule="evenodd" d="M608.4,390.8l-0.2,-0.3l0,-98.7l0.2,-0.3l0.1,0.3l0,98.7l-0.1,0.3Z" class="g4_158" />
<path fill-rule="evenodd" d="M676.3,390.8l-0.1,-0.3l0,-98.7l0.1,-0.3l0.2,0.3l0,98.7l-0.2,0.3Z" class="g4_158" />
<path fill-rule="evenodd" d="M676.3,291.5l-0.1,0.3l-67.7,0l-0.1,-0.3l0.1,-0.2l67.7,0l0.1,0.2Z" class="g4_158" />
<path fill-rule="evenodd" d="M676.3,390.8l-0.1,-0.3l0,-98.7l0.1,-0.3l0.2,0.3l0,98.7l-0.2,0.3Z" class="g4_158" />
<path fill-rule="evenodd" d="M753.8,390.8l-0.1,-0.3l0,-98.7l0.1,-0.3l0.2,0.3l0,98.7l-0.2,0.3Z" class="g4_158" />
<path fill-rule="evenodd" d="M753.8,291.5l-0.1,0.3l-77.2,0l-0.2,-0.3l0.2,-0.2l77.2,0l0.1,0.2Z" class="g4_158" />
<path fill-rule="evenodd" d="M753.8,390.8l-0.1,-0.3l0,-98.7l0.1,-0.3l0.2,0.3l0,98.7l-0.2,0.3Z" class="g4_158" />
<path fill-rule="evenodd" d="M831.6,390.8l-0.2,-0.3l0,-98.7l0.2,-0.3l0.3,0.3l0,98.7l-0.3,0.3Z" class="g4_158" />
<path fill-rule="evenodd" d="M831.6,291.5l-0.2,0.3l-77.4,0l-0.2,-0.3l0.2,-0.2l77.4,0l0.2,0.2Z" class="g4_158" />
<path fill-rule="evenodd" d="M831.6,390.8l-0.2,-0.3l0,-98.7l0.2,-0.3l0.3,0.3l0,98.7l-0.3,0.3Z" class="g4_158" />
<path fill-rule="evenodd" d="M899.6,390.8l-0.2,-0.3l0,-98.7l0.2,-0.3l0.3,0.3l0,98.7l-0.3,0.3Z" class="g4_158" />
<path fill-rule="evenodd" d="M899.6,291.5l-0.2,0.3l-67.5,0l-0.3,-0.3l0.3,-0.2l67.5,0l0.2,0.2Z" class="g4_158" />
<path fill-rule="evenodd" d="M899.6,390.8l-0.2,-0.3l0,-98.7l0.2,-0.3l0.3,0.3l0,98.7l-0.3,0.3Z" class="g4_158" />
<path fill-rule="evenodd" d="M967.4,390.8l-0.2,-0.3l0,-98.7l0.2,-0.3l0.1,-0.2l0,99.6l-0.1,-0.1Z" class="g4_158" />
<path fill-rule="evenodd" d="M967.4,291.5l-0.2,0.3l-67.3,0l-0.3,-0.3l0.3,-0.2l67.3,0l0.2,0.2Z" class="g4_158" />
<path fill-rule="evenodd" d="M967.4,390.8l-0.2,-0.3l0,-98.7l0.2,-0.3l0.1,0.3l0,98.7l-0.1,0.3Z" class="g4_158" />
<path fill-rule="evenodd" d="M1045.2,390.8l-0.4,-0.3l0,-98.7l0.4,-0.3l0.3,-0.2l0,99.6l-0.3,-0.1Z" class="g4_158" />
<path fill-rule="evenodd" d="M1045.2,291.5l-0.5,0.3l-77.2,0l-0.1,-0.3l0.1,-0.2l77.2,0l0.5,0.2Z" class="g4_158" />
<path fill-rule="evenodd" d="M55,489.6l-0.3,0.2l0,-99.3l0.3,0.3l0.3,0.1l0,98.6L55,489.6Z" class="g4_158" />
<path fill-rule="evenodd" d="M462.8,489.6l-0.2,-0.1l0,-98.6l0.2,-0.1l0.1,0.1l0,98.6l-0.1,0.1Z" class="g4_158" />
<path fill-rule="evenodd" d="M462.8,390.8l-0.2,0.1l-407.1,0L55,390.8l0.5,-0.3l407.1,0l0.2,0.3Z" class="g4_158" />
<path fill-rule="evenodd" d="M462.8,489.6l-0.2,-0.1l0,-98.6l0.2,-0.1l0.1,0.1l0,98.6l-0.1,0.1Z" class="g4_158" />
<path fill-rule="evenodd" d="M530.6,489.6l-0.2,-0.1l0,-98.6l0.2,-0.1l0.1,0.1l0,98.6l-0.1,0.1Z" class="g4_158" />
<path fill-rule="evenodd" d="M530.6,390.8l-0.2,0.1l-67.5,0l-0.1,-0.1l0.1,-0.3l67.5,0l0.2,0.3Z" class="g4_158" />
<path fill-rule="evenodd" d="M530.6,489.6l-0.2,-0.1l0,-98.6l0.2,-0.1l0.1,0.1l0,98.6l-0.1,0.1Z" class="g4_158" />
<path fill-rule="evenodd" d="M608.4,489.6l-0.2,-0.1l0,-98.6l0.2,-0.1l0.1,0.1l0,98.6l-0.1,0.1Z" class="g4_158" />
<path fill-rule="evenodd" d="M608.4,390.8l-0.2,0.1l-77.5,0l-0.1,-0.1l0.1,-0.3l77.5,0l0.2,0.3Z" class="g4_158" />
<path fill-rule="evenodd" d="M608.4,489.6l-0.2,-0.1l0,-98.6l0.2,-0.1l0.1,0.1l0,98.6l-0.1,0.1Z" class="g4_158" />
<path fill-rule="evenodd" d="M676.3,489.6l-0.1,-0.1l0,-98.6l0.1,-0.1l0.2,0.1l0,98.6l-0.2,0.1Z" class="g4_158" />
<path fill-rule="evenodd" d="M676.3,390.8l-0.1,0.1l-67.7,0l-0.1,-0.1l0.1,-0.3l67.7,0l0.1,0.3Z" class="g4_158" />
<path fill-rule="evenodd" d="M676.3,489.6l-0.1,-0.1l0,-98.6l0.1,-0.1l0.2,0.1l0,98.6l-0.2,0.1Z" class="g4_158" />
<path fill-rule="evenodd" d="M753.8,489.6l-0.1,-0.1l0,-98.6l0.1,-0.1l0.2,0.1l0,98.6l-0.2,0.1Z" class="g4_158" />
<path fill-rule="evenodd" d="M753.8,390.8l-0.1,0.1l-77.2,0l-0.2,-0.1l0.2,-0.3l77.2,0l0.1,0.3Z" class="g4_158" />
<path fill-rule="evenodd" d="M753.8,489.6l-0.1,-0.1l0,-98.6l0.1,-0.1l0.2,0.1l0,98.6l-0.2,0.1Z" class="g4_158" />
<path fill-rule="evenodd" d="M831.6,489.6l-0.2,-0.1l0,-98.6l0.2,-0.1l0.3,0.1l0,98.6l-0.3,0.1Z" class="g4_158" />
<path fill-rule="evenodd" d="M831.6,390.8l-0.2,0.1l-77.4,0l-0.2,-0.1l0.2,-0.3l77.4,0l0.2,0.3Z" class="g4_158" />
<path fill-rule="evenodd" d="M831.6,489.6l-0.2,-0.1l0,-98.6l0.2,-0.1l0.3,0.1l0,98.6l-0.3,0.1Z" class="g4_158" />
<path fill-rule="evenodd" d="M899.6,489.6l-0.2,-0.1l0,-98.6l0.2,-0.1l0.3,0.1l0,98.6l-0.3,0.1Z" class="g4_158" />
<path fill-rule="evenodd" d="M899.6,390.8l-0.2,0.1l-67.5,0l-0.3,-0.1l0.3,-0.3l67.5,0l0.2,0.3Z" class="g4_158" />
<path fill-rule="evenodd" d="M899.6,489.6l-0.2,-0.1l0,-98.6l0.2,-0.1l0.3,0.1l0,98.6l-0.3,0.1Z" class="g4_158" />
<path fill-rule="evenodd" d="M967.4,489.6l-0.2,-0.1l0,-98.6l0.2,-0.1l0.1,-0.3l0,99.3l-0.1,-0.2Z" class="g4_158" />
<path fill-rule="evenodd" d="M967.4,390.8l-0.2,0.1l-67.3,0l-0.3,-0.1l0.3,-0.3l67.3,0l0.2,0.3Z" class="g4_158" />
<path fill-rule="evenodd" d="M967.4,489.6l-0.2,-0.1l0,-98.6l0.2,-0.1l0.1,0.1l0,98.6l-0.1,0.1Z" class="g4_158" />
<path fill-rule="evenodd" d="M1045.2,489.6l-0.4,-0.1l0,-98.6l0.4,-0.1l0.3,-0.3l0,99.3l-0.3,-0.2Z" class="g4_158" />
<path fill-rule="evenodd" d="M1045.2,390.8l-0.5,0.1l-77.2,0l-0.1,-0.1l0.1,-0.3l77.2,0l0.5,0.3Z" class="g4_158" />
<path fill-rule="evenodd" d="M55,588.8l-0.3,0.3l0,-99.6l0.3,0.1l0.3,0.2l0,98.8L55,588.8Z" class="g4_158" />
<path fill-rule="evenodd" d="M462.8,588.8l-0.2,-0.2l0,-98.8l0.2,-0.2l0.1,0.2l0,98.8l-0.1,0.2Z" class="g4_158" />
<path fill-rule="evenodd" d="M462.8,489.6l-0.2,0.2l-407.1,0L55,489.6l0.5,-0.1l407.1,0l0.2,0.1Z" class="g4_158" />
<path fill-rule="evenodd" d="M462.8,588.8l-0.2,-0.2l0,-98.8l0.2,-0.2l0.1,0.2l0,98.8l-0.1,0.2Z" class="g4_158" />
<path fill-rule="evenodd" d="M530.6,588.8l-0.2,-0.2l0,-98.8l0.2,-0.2l0.1,0.2l0,98.8l-0.1,0.2Z" class="g4_158" />
<path fill-rule="evenodd" d="M530.6,489.6l-0.2,0.2l-67.5,0l-0.1,-0.2l0.1,-0.1l67.5,0l0.2,0.1Z" class="g4_158" />
<path fill-rule="evenodd" d="M530.6,588.8l-0.2,-0.2l0,-98.8l0.2,-0.2l0.1,0.2l0,98.8l-0.1,0.2Z" class="g4_158" />
<path fill-rule="evenodd" d="M608.4,588.8l-0.2,-0.2l0,-98.8l0.2,-0.2l0.1,0.2l0,98.8l-0.1,0.2Z" class="g4_158" />
<path fill-rule="evenodd" d="M608.4,489.6l-0.2,0.2l-77.5,0l-0.1,-0.2l0.1,-0.1l77.5,0l0.2,0.1Z" class="g4_158" />
<path fill-rule="evenodd" d="M608.4,588.8l-0.2,-0.2l0,-98.8l0.2,-0.2l0.1,0.2l0,98.8l-0.1,0.2Z" class="g4_158" />
<path fill-rule="evenodd" d="M676.3,588.8l-0.1,-0.2l0,-98.8l0.1,-0.2l0.2,0.2l0,98.8l-0.2,0.2Z" class="g4_158" />
<path fill-rule="evenodd" d="M676.3,489.6l-0.1,0.2l-67.7,0l-0.1,-0.2l0.1,-0.1l67.7,0l0.1,0.1Z" class="g4_158" />
<path fill-rule="evenodd" d="M676.3,588.8l-0.1,-0.2l0,-98.8l0.1,-0.2l0.2,0.2l0,98.8l-0.2,0.2Z" class="g4_158" />
<path fill-rule="evenodd" d="M753.8,588.8l-0.1,-0.2l0,-98.8l0.1,-0.2l0.2,0.2l0,98.8l-0.2,0.2Z" class="g4_158" />
<path fill-rule="evenodd" d="M753.8,489.6l-0.1,0.2l-77.2,0l-0.2,-0.2l0.2,-0.1l77.2,0l0.1,0.1Z" class="g4_158" />
<path fill-rule="evenodd" d="M753.8,588.8l-0.1,-0.2l0,-98.8l0.1,-0.2l0.2,0.2l0,98.8l-0.2,0.2Z" class="g4_158" />
<path fill-rule="evenodd" d="M831.6,588.8l-0.2,-0.2l0,-98.8l0.2,-0.2l0.3,0.2l0,98.8l-0.3,0.2Z" class="g4_158" />
<path fill-rule="evenodd" d="M831.6,489.6l-0.2,0.2l-77.4,0l-0.2,-0.2l0.2,-0.1l77.4,0l0.2,0.1Z" class="g4_158" />
<path fill-rule="evenodd" d="M831.6,588.8l-0.2,-0.2l0,-98.8l0.2,-0.2l0.3,0.2l0,98.8l-0.3,0.2Z" class="g4_158" />
<path fill-rule="evenodd" d="M899.6,588.8l-0.2,-0.2l0,-98.8l0.2,-0.2l0.3,0.2l0,98.8l-0.3,0.2Z" class="g4_158" />
<path fill-rule="evenodd" d="M899.6,489.6l-0.2,0.2l-67.5,0l-0.3,-0.2l0.3,-0.1l67.5,0l0.2,0.1Z" class="g4_158" />
<path fill-rule="evenodd" d="M899.6,588.8l-0.2,-0.2l0,-98.8l0.2,-0.2l0.3,0.2l0,98.8l-0.3,0.2Z" class="g4_158" />
<path fill-rule="evenodd" d="M967.4,588.8l-0.2,-0.2l0,-98.8l0.2,-0.2l0.1,-0.1l0,99.6l-0.1,-0.3Z" class="g4_158" />
<path fill-rule="evenodd" d="M967.4,489.6l-0.2,0.2l-67.3,0l-0.3,-0.2l0.3,-0.1l67.3,0l0.2,0.1Z" class="g4_158" />
<path fill-rule="evenodd" d="M967.4,588.8l-0.2,-0.2l0,-98.8l0.2,-0.2l0.1,0.2l0,98.8l-0.1,0.2Z" class="g4_158" />
<path fill-rule="evenodd" d="M1045.2,588.8l-0.4,-0.2l0,-98.8l0.4,-0.2l0.3,-0.1l0,99.6l-0.3,-0.3Z" class="g4_158" />
<path fill-rule="evenodd" d="M1045.2,489.6l-0.5,0.2l-77.2,0l-0.1,-0.2l0.1,-0.1l77.2,0l0.5,0.1Z" class="g4_158" />
<path fill-rule="evenodd" d="M55,687.8l-0.3,0.3l0,-99.5l0.3,0.2l0.3,0.3l0,98.4L55,687.8Z" class="g4_158" />
<path fill-rule="evenodd" d="M462.8,687.8l0.1,0.3l-408.2,0L55,687.8l0.3,-0.3l407.3,0l0.2,0.3Z" class="g4_158" />
<path fill-rule="evenodd" d="M462.8,687.8l-0.2,-0.5l0,-98.2l0.2,-0.3l0.1,0.3l0,98.2l-0.1,0.5Z" class="g4_158" />
<path fill-rule="evenodd" d="M462.8,588.8l-0.2,0.3l-407.1,0L55,588.8l0.5,-0.2l407.1,0l0.2,0.2Z" class="g4_158" />
<path fill-rule="evenodd" d="M462.8,687.8l-0.2,-0.5l0,-98.2l0.2,-0.3l0.1,0.3l0,98.2l-0.1,0.5Z" class="g4_158" />
<path fill-rule="evenodd" d="M530.6,687.8l0.1,0.3l-68.1,0l0.2,-0.3l0.1,-0.3l67.5,0l0.2,0.3Z" class="g4_158" />
<path fill-rule="evenodd" d="M530.6,687.8l-0.2,-0.5l0,-98.2l0.2,-0.3l0.1,0.3l0,98.2l-0.1,0.5Z" class="g4_158" />
<path fill-rule="evenodd" d="M530.6,588.8l-0.2,0.3l-67.5,0l-0.1,-0.3l0.1,-0.2l67.5,0l0.2,0.2Z" class="g4_158" />
<path fill-rule="evenodd" d="M530.6,687.8l-0.2,-0.5l0,-98.2l0.2,-0.3l0.1,0.3l0,98.2l-0.1,0.5Z" class="g4_158" />
<path fill-rule="evenodd" d="M608.4,687.8l0.1,0.3l-78.1,0l0.2,-0.3l0.1,-0.3l77.5,0l0.2,0.3Z" class="g4_158" />
<path fill-rule="evenodd" d="M608.4,687.8l-0.2,-0.5l0,-98.2l0.2,-0.3l0.1,0.3l0,98.2l-0.1,0.5Z" class="g4_158" />
<path fill-rule="evenodd" d="M608.4,588.8l-0.2,0.3l-77.5,0l-0.1,-0.3l0.1,-0.2l77.5,0l0.2,0.2Z" class="g4_158" />
<path fill-rule="evenodd" d="M608.4,687.8l-0.2,-0.5l0,-98.2l0.2,-0.3l0.1,0.3l0,98.2l-0.1,0.5Z" class="g4_158" />
<path fill-rule="evenodd" d="M676.3,687.8l0.2,0.3l-68.3,0l0.2,-0.3l0.1,-0.3l67.7,0l0.1,0.3Z" class="g4_158" />
<path fill-rule="evenodd" d="M676.3,687.8l-0.1,-0.5l0,-98.2l0.1,-0.3l0.2,0.3l0,98.2l-0.2,0.5Z" class="g4_158" />
<path fill-rule="evenodd" d="M676.3,588.8l-0.1,0.3l-67.7,0l-0.1,-0.3l0.1,-0.2l67.7,0l0.1,0.2Z" class="g4_158" />
<path fill-rule="evenodd" d="M676.3,687.8l-0.1,-0.5l0,-98.2l0.1,-0.3l0.2,0.3l0,98.2l-0.2,0.5Z" class="g4_158" />
<path fill-rule="evenodd" d="M753.8,687.8l0.2,0.3l-77.8,0l0.1,-0.3l0.2,-0.3l77.2,0l0.1,0.3Z" class="g4_158" />
<path fill-rule="evenodd" d="M753.8,687.8l-0.1,-0.5l0,-98.2l0.1,-0.3l0.2,0.3l0,98.2l-0.2,0.5Z" class="g4_158" />
<path fill-rule="evenodd" d="M753.8,588.8l-0.1,0.3l-77.2,0l-0.2,-0.3l0.2,-0.2l77.2,0l0.1,0.2Z" class="g4_158" />
<path fill-rule="evenodd" d="M753.8,687.8l-0.1,-0.5l0,-98.2l0.1,-0.3l0.2,0.3l0,98.2l-0.2,0.5Z" class="g4_158" />
<path fill-rule="evenodd" d="M831.6,687.8l0.3,0.3l-78.2,0l0.1,-0.3l0.2,-0.3l77.4,0l0.2,0.3Z" class="g4_158" />
<path fill-rule="evenodd" d="M831.6,687.8l-0.2,-0.5l0,-98.2l0.2,-0.3l0.3,0.3l0,98.2l-0.3,0.5Z" class="g4_158" />
<path fill-rule="evenodd" d="M831.6,588.8l-0.2,0.3l-77.4,0l-0.2,-0.3l0.2,-0.2l77.4,0l0.2,0.2Z" class="g4_158" />
<path fill-rule="evenodd" d="M831.6,687.8l-0.2,-0.5l0,-98.2l0.2,-0.3l0.3,0.3l0,98.2l-0.3,0.5Z" class="g4_158" />
<path fill-rule="evenodd" d="M899.6,687.8l0.3,0.3l-68.5,0l0.2,-0.3l0.3,-0.3l67.5,0l0.2,0.3Z" class="g4_158" />
<path fill-rule="evenodd" d="M899.6,687.8l-0.2,-0.5l0,-98.2l0.2,-0.3l0.3,0.3l0,98.2l-0.3,0.5Z" class="g4_158" />
<path fill-rule="evenodd" d="M899.6,588.8l-0.2,0.3l-67.5,0l-0.3,-0.3l0.3,-0.2l67.5,0l0.2,0.2Z" class="g4_158" />
<path fill-rule="evenodd" d="M899.6,687.8l-0.2,-0.5l0,-98.2l0.2,-0.3l0.3,0.3l0,98.2l-0.3,0.5Z" class="g4_158" />
<path fill-rule="evenodd" d="M967.4,687.8l0.1,0.3l-68.1,0l0.2,-0.3l0.3,-0.3l67.3,0l0.2,0.3Z" class="g4_158" />
<path fill-rule="evenodd" d="M967.4,687.8l-0.2,-0.5l0,-98.2l0.2,-0.3l0.1,-0.2l0,99.5l-0.1,-0.3Z" class="g4_158" />
<path fill-rule="evenodd" d="M967.4,588.8l-0.2,0.3l-67.3,0l-0.3,-0.3l0.3,-0.2l67.3,0l0.2,0.2Z" class="g4_158" />
<path fill-rule="evenodd" d="M967.4,687.8l-0.2,-0.5l0,-98.2l0.2,-0.3l0.1,0.3l0,98.2l-0.1,0.5Z" class="g4_158" />
<path fill-rule="evenodd" d="M1045.2,687.8l0.3,0.3l-78.3,0l0.2,-0.3l0.1,-0.3l77.3,0l0.4,0.3Z" class="g4_158" />
<path fill-rule="evenodd" d="M1045.2,687.8l-0.4,-0.3l0,-98.4l0.4,-0.3l0.3,-0.2l0,99.5l-0.3,-0.3Z" class="g4_158" />
<path fill-rule="evenodd" d="M1045.2,588.8l-0.5,0.3l-77.2,0l-0.1,-0.3l0.1,-0.2l77.2,0l0.5,0.2Z" class="g4_158" />
</svg>