<?xml version="1.0" encoding="UTF-8" standalone="no"?>
<!DOCTYPE svg PUBLIC "-//W3C//DTD SVG 1.1//EN"
"http://www.w3.org/Graphics/SVG/1.1/DTD/svg11.dtd">
<svg viewBox="0 0 1099 824" version="1.1" xmlns="http://www.w3.org/2000/svg" xmlns:xlink="http://www.w3.org/1999/xlink">
<defs>
<clipPath id="c0_161"><path d="M0,825L0,0L1100,0l0,825Z" /></clipPath>
<style type="text/css"><![CDATA[
.g1_161{
fill: #FFFFFF;
}
.g2_161{
fill: none;
stroke: #CC9900;
stroke-width: 2.291514;
stroke-linecap: butt;
stroke-linejoin: miter;
stroke-miterlimit: 7;
}
.g3_161{
fill: none;
stroke: #CC9900;
stroke-width: 2.291514;
stroke-linecap: square;
stroke-linejoin: miter;
stroke-miterlimit: 7;
}
.g4_161{
fill: none;
stroke: #000000;
stroke-width: 2.5972223;
stroke-linecap: butt;
stroke-linejoin: miter;
}
.g5_161{
fill: none;
stroke: #000000;
stroke-width: 3.4156528;
stroke-linecap: square;
stroke-linejoin: miter;
}
.g6_161{
}
.g7_161{
fill: none;
stroke: #000000;
stroke-width: 6.8745265;
stroke-linecap: square;
stroke-linejoin: miter;
}
.g8_161{
fill: none;
stroke: #000000;
stroke-width: 1.1241388;
stroke-linecap: square;
stroke-linejoin: round;
}
]]></style>
</defs>
<g clip-path="url(#c0_161)">
<path fill-rule="evenodd" d="M0,0.1l1100,0l0,825L0,825.1L0,0.1Z" class="g1_161" />
<path fill-rule="evenodd" d="M0,0.1l1100,0l0,825L0,825.1L0,0.1Z" class="g1_161" />
</g>
<path d="M45.8,100.9l0,-73.3l990,0" class="g2_161" />
<path d="M45.8,27.6l0,0Z" class="g2_161" />
<path d="M1035.8,100.9l0,0Z" class="g2_161" />
<path d="M55,742.6l990,0.2" class="g3_161" />
<path d="M84.8,252.8l263.5,0" class="g4_161" />
<path d="M262,532.8L262.2,487" class="g5_161" />
<path fill-rule="evenodd" d="M262.2,477.5l5.2,10.3l-10.3,0l5.1,-10.3Z" class="g6_161" />
<path d="M411.4,378.1l136.8,0.1" class="g7_161" />
<path fill-rule="evenodd" d="M567.4,378.2l-20.8,10.3l0,-20.7l20.8,10.4Z" class="g6_161" />
<path d="M212.5,623.3C390.8,769,639.8,763.7,781.2,601.1" class="g8_161" />
<path fill-rule="evenodd" d="M201.7,614l16.3,3.9l-9.8,11.7L201.7,614Z" class="g6_161" />
<path d="M801.2,187.4l15.2,77.2" class="g5_161" />
<path fill-rule="evenodd" d="M818.3,274l-7,-9.1l10,-2l-3,11.1Z" class="g6_161" />
</svg>