<?xml version="1.0" encoding="UTF-8" standalone="no"?>
<!DOCTYPE svg PUBLIC "-//W3C//DTD SVG 1.1//EN"
"http://www.w3.org/Graphics/SVG/1.1/DTD/svg11.dtd">
<svg viewBox="0 0 1564 1173" version="1.1" xmlns="http://www.w3.org/2000/svg" xmlns:xlink="http://www.w3.org/1999/xlink">
<defs>
<clipPath id="c0_45"><path d="M0,1173.1L0,0.1l1564.1,0l0,1173Z" /></clipPath>
<style type="text/css"><![CDATA[
.g1_45{
fill: #FFFFFF;
}
.g2_45{
fill: none;
stroke: #000000;
stroke-width: 1.9023737;
stroke-linecap: square;
stroke-linejoin: miter;
stroke-miterlimit: 7;
}
.g3_45{
fill: #00CC99;
}
.g4_45{
fill: #CBECDE;
}
.g5_45{
fill: #E7F6EF;
}
]]></style>
</defs>
<g clip-path="url(#c0_45)">
<path fill-rule="evenodd" d="M0,0.1l1564.1,0l0,1173.2L0,1173.3L0,0.1Z" class="g1_45" />
<path fill-rule="evenodd" d="M0,0.1l1564.3,0l0,1173.2L0,1173.3L0,0.1Z" class="g1_45" />
</g>
<path d="M782.2,1069.3l-691,0l0,-990.8l1381.9,0l0,990.8l-690.9,0Z" class="g2_45" />
<path fill-rule="evenodd" d="M259.7,370.5l347.6,0l0,106.3l-347.6,0l0,-106.3Z" class="g3_45" />
<path fill-rule="evenodd" d="M607.3,370.5l347.7,0l0,106.3l-347.7,0l0,-106.3Z" class="g3_45" />
<path fill-rule="evenodd" d="M955,370.5l347.6,0l0,106.3l-347.6,0l0,-106.3Z" class="g3_45" />
<path fill-rule="evenodd" d="M259.7,476.8l347.6,0l0,58.7l-347.6,0l0,-58.7Z" class="g4_45" />
<path fill-rule="evenodd" d="M607.3,476.8l347.7,0l0,58.7l-347.7,0l0,-58.7Z" class="g4_45" />
<path fill-rule="evenodd" d="M955,476.8l347.6,0l0,58.7l-347.6,0l0,-58.7Z" class="g4_45" />
<path fill-rule="evenodd" d="M259.7,535.5l347.6,0l0,58.6l-347.6,0l0,-58.6Z" class="g5_45" />
<path fill-rule="evenodd" d="M607.3,535.5l347.7,0l0,58.6l-347.7,0l0,-58.6Z" class="g5_45" />
<path fill-rule="evenodd" d="M955,535.5l347.6,0l0,58.6l-347.6,0l0,-58.6Z" class="g5_45" />
<path fill-rule="evenodd" d="M259.7,594.1l347.6,0l0,58.7l-347.6,0l0,-58.7Z" class="g4_45" />
<path fill-rule="evenodd" d="M607.3,594.1l347.7,0l0,58.7l-347.7,0l0,-58.7Z" class="g4_45" />
<path fill-rule="evenodd" d="M955,594.1l347.6,0l0,58.7l-347.6,0l0,-58.7Z" class="g4_45" />
<path fill-rule="evenodd" d="M259.7,652.8l347.6,0l0,58.7l-347.6,0l0,-58.7Z" class="g5_45" />
<path fill-rule="evenodd" d="M607.3,652.8l347.7,0l0,58.7l-347.7,0l0,-58.7Z" class="g5_45" />
<path fill-rule="evenodd" d="M955,652.8l347.6,0l0,58.7l-347.6,0l0,-58.7Z" class="g5_45" />
<path fill-rule="evenodd" d="M259.7,711.5l347.6,0l0,58.6l-347.6,0l0,-58.6Z" class="g4_45" />
<path fill-rule="evenodd" d="M607.3,711.5l347.7,0l0,58.6l-347.7,0l0,-58.6Z" class="g4_45" />
<path fill-rule="evenodd" d="M955,711.5l347.6,0l0,58.6l-347.6,0l0,-58.6Z" class="g4_45" />
<path fill-rule="evenodd" d="M259.7,476.8l-0.1,0.4l-0.2,0l0,-107.2l0.3,0.5l0.3,0.3l0,104.8l-0.3,1.2Z" class="g1_45" />
<path fill-rule="evenodd" d="M607.3,476.8L607,475.6l0,-104.8l0.3,-0.3l0.3,0.3l0,104.8l-0.3,1.2Z" class="g1_45" />
<path fill-rule="evenodd" d="M607.3,370.5l-0.3,0.3l-347,0l-0.3,-0.3L259.4,370l348.2,0l-0.3,0.5Z" class="g1_45" />
<path fill-rule="evenodd" d="M607.3,476.8L607,475.6l0,-104.8l0.3,-0.3l0.3,0.3l0,104.8l-0.3,1.2Z" class="g1_45" />
<path fill-rule="evenodd" d="M955,476.8l-0.3,-1.2l0,-104.8l0.3,-0.3l0.5,-0.5l0,107.2l-0.3,0L955,476.8Z" class="g1_45" />
<path fill-rule="evenodd" d="M955,370.5l-0.3,0.3l-347.1,0l-0.3,-0.3L607,370l348.5,0l-0.5,0.5Z" class="g1_45" />
<path fill-rule="evenodd" d="M955,476.8l-0.3,-1.2l0,-104.8l0.3,-0.3l0.5,0.3l0,104.8l-0.5,1.2Z" class="g1_45" />
<path fill-rule="evenodd" d="M1302.6,476.8l-0.3,-1.2l0,-104.8l0.3,-0.3L1303,370l0,107.2l-0.3,0l-0.1,-0.4Z" class="g1_45" />
<path fill-rule="evenodd" d="M1302.6,370.5l-0.3,0.3l-346.8,0L955,370.5L954.7,370l348.3,0l-0.4,0.5Z" class="g1_45" />
<path fill-rule="evenodd" d="M259.7,535.5l-0.3,0.3l0,-59.6l0.2,0l0.1,0.6l0.3,1.1l0,57.1l-0.3,0.5Z" class="g1_45" />
<path fill-rule="evenodd" d="M607.3,535.5L607,535l0,-57.1l0.3,-1.1l0.3,1.1l0,57.1l-0.3,0.5Z" class="g1_45" />
<path fill-rule="evenodd" d="M607.3,476.8l-0.3,0.9l-347,0l-0.3,-0.9l0.3,-1.1l347,0l0.3,1.1Z" class="g1_45" />
<path fill-rule="evenodd" d="M607.3,535.5L607,535l0,-57.1l0.3,-1.1l0.3,1.1l0,57.1l-0.3,0.5Z" class="g1_45" />
<path fill-rule="evenodd" d="M955,535.5L954.7,535l0,-57.1l0.3,-1.1l0.2,-0.6l0.3,0l0,59.6L955,535.5Z" class="g1_45" />
<path fill-rule="evenodd" d="M955,476.8l-0.3,0.9l-347.1,0l-0.3,-0.9l0.3,-1.1l347.1,0l0.3,1.1Z" class="g1_45" />
<path fill-rule="evenodd" d="M955,535.5L954.7,535l0,-57.1l0.3,-1.1l0.5,1.1l0,57.1l-0.5,0.5Z" class="g1_45" />
<path fill-rule="evenodd" d="M1302.6,535.5l-0.3,-0.5l0,-57.1l0.3,-1.1l0.1,-0.6l0.3,0l0,59.6l-0.4,-0.3Z" class="g1_45" />
<path fill-rule="evenodd" d="M1302.6,476.8l-0.3,0.9l-347,0L955,476.8l0.3,-1.1l347,0l0.3,1.1Z" class="g1_45" />
<path fill-rule="evenodd" d="M259.7,594.1l-0.3,0.3l0,-59.4l0.3,0.5l0.3,0.3l0,57.9l-0.3,0.4Z" class="g1_45" />
<path fill-rule="evenodd" d="M607.3,594.1L607,593.7l0,-57.9l0.3,-0.3l0.3,0.3l0,57.9l-0.3,0.4Z" class="g1_45" />
<path fill-rule="evenodd" d="M607.3,535.5l-0.3,0.3l-347,0l-0.3,-0.3L260,535l347,0l0.3,0.5Z" class="g1_45" />
<path fill-rule="evenodd" d="M607.3,594.1L607,593.7l0,-57.9l0.3,-0.3l0.3,0.3l0,57.9l-0.3,0.4Z" class="g1_45" />
<path fill-rule="evenodd" d="M955,594.1l-0.3,-0.4l0,-57.9l0.3,-0.3l0.5,-0.5l0,59.4L955,594.1Z" class="g1_45" />
<path fill-rule="evenodd" d="M955,535.5l-0.3,0.3l-347.1,0l-0.3,-0.3l0.3,-0.5l347.1,0l0.3,0.5Z" class="g1_45" />
<path fill-rule="evenodd" d="M955,594.1l-0.3,-0.4l0,-57.9l0.3,-0.3l0.5,0.3l0,57.9l-0.5,0.4Z" class="g1_45" />
<path fill-rule="evenodd" d="M1302.6,594.1l-0.3,-0.4l0,-57.9l0.3,-0.3L1303,535l0,59.4l-0.4,-0.3Z" class="g1_45" />
<path fill-rule="evenodd" d="M1302.6,535.5l-0.3,0.3l-346.8,0L955,535.5l0.5,-0.5l346.8,0l0.3,0.5Z" class="g1_45" />
<path fill-rule="evenodd" d="M259.7,652.8l-0.3,0.3l0,-59.4l0.3,0.4l0.3,0.3l0,58.1l-0.3,0.3Z" class="g1_45" />
<path fill-rule="evenodd" d="M607.3,652.8L607,652.5l0,-58.1l0.3,-0.3l0.3,0.3l0,58.1l-0.3,0.3Z" class="g1_45" />
<path fill-rule="evenodd" d="M607.3,594.1l-0.3,0.3l-347,0l-0.3,-0.3l0.3,-0.4l347,0l0.3,0.4Z" class="g1_45" />
<path fill-rule="evenodd" d="M607.3,652.8L607,652.5l0,-58.1l0.3,-0.3l0.3,0.3l0,58.1l-0.3,0.3Z" class="g1_45" />
<path fill-rule="evenodd" d="M955,652.8l-0.3,-0.3l0,-58.1l0.3,-0.3l0.5,-0.4l0,59.4L955,652.8Z" class="g1_45" />
<path fill-rule="evenodd" d="M955,594.1l-0.3,0.3l-347.1,0l-0.3,-0.3l0.3,-0.4l347.1,0l0.3,0.4Z" class="g1_45" />
<path fill-rule="evenodd" d="M955,652.8l-0.3,-0.3l0,-58.1l0.3,-0.3l0.5,0.3l0,58.1l-0.5,0.3Z" class="g1_45" />
<path fill-rule="evenodd" d="M1302.6,652.8l-0.3,-0.3l0,-58.1l0.3,-0.3l0.4,-0.4l0,59.4l-0.4,-0.3Z" class="g1_45" />
<path fill-rule="evenodd" d="M1302.6,594.1l-0.3,0.3l-346.8,0L955,594.1l0.5,-0.4l346.8,0l0.3,0.4Z" class="g1_45" />
<path fill-rule="evenodd" d="M259.7,711.5l-0.3,0.3l0,-59.3l0.3,0.3l0.3,0.3l0,58l-0.3,0.4Z" class="g1_45" />
<path fill-rule="evenodd" d="M607.3,711.5L607,711.1l0,-58l0.3,-0.3l0.3,0.3l0,58l-0.3,0.4Z" class="g1_45" />
<path fill-rule="evenodd" d="M607.3,652.8l-0.3,0.3l-347,0l-0.3,-0.3l0.3,-0.3l347,0l0.3,0.3Z" class="g1_45" />
<path fill-rule="evenodd" d="M607.3,711.5L607,711.1l0,-58l0.3,-0.3l0.3,0.3l0,58l-0.3,0.4Z" class="g1_45" />
<path fill-rule="evenodd" d="M955,711.5l-0.3,-0.4l0,-58l0.3,-0.3l0.5,-0.3l0,59.3L955,711.5Z" class="g1_45" />
<path fill-rule="evenodd" d="M955,652.8l-0.3,0.3l-347.1,0l-0.3,-0.3l0.3,-0.3l347.1,0l0.3,0.3Z" class="g1_45" />
<path fill-rule="evenodd" d="M955,711.5l-0.3,-0.4l0,-58l0.3,-0.3l0.5,0.3l0,58l-0.5,0.4Z" class="g1_45" />
<path fill-rule="evenodd" d="M1302.6,711.5l-0.3,-0.4l0,-58l0.3,-0.3l0.4,-0.3l0,59.3l-0.4,-0.3Z" class="g1_45" />
<path fill-rule="evenodd" d="M1302.6,652.8l-0.3,0.3l-346.8,0L955,652.8l0.5,-0.3l346.8,0l0.3,0.3Z" class="g1_45" />
<path fill-rule="evenodd" d="M259.7,770.1l-0.3,0.3l0,-59.3l0.3,0.4l0.3,0.3l0,58l-0.3,0.3Z" class="g1_45" />
<path fill-rule="evenodd" d="M607.3,770.1l0.3,0.3l-348.2,0l0.3,-0.3l0.3,-0.3l347,0l0.3,0.3Z" class="g1_45" />
<path fill-rule="evenodd" d="M607.3,770.1L607,769.8l0,-58l0.3,-0.3l0.3,0.3l0,58l-0.3,0.3Z" class="g1_45" />
<path fill-rule="evenodd" d="M607.3,711.5l-0.3,0.3l-347,0l-0.3,-0.3l0.3,-0.4l347,0l0.3,0.4Z" class="g1_45" />
<path fill-rule="evenodd" d="M607.3,770.1L607,769.8l0,-58l0.3,-0.3l0.3,0.3l0,58l-0.3,0.3Z" class="g1_45" />
<path fill-rule="evenodd" d="M955,770.1l0.5,0.3l-348.5,0l0.3,-0.3l0.3,-0.3l347.1,0l0.3,0.3Z" class="g1_45" />
<path fill-rule="evenodd" d="M955,770.1l-0.3,-0.3l0,-58l0.3,-0.3l0.5,-0.4l0,59.3L955,770.1Z" class="g1_45" />
<path fill-rule="evenodd" d="M955,711.5l-0.3,0.3l-347.1,0l-0.3,-0.3l0.3,-0.4l347.1,0l0.3,0.4Z" class="g1_45" />
<path fill-rule="evenodd" d="M955,770.1l-0.3,-0.3l0,-58l0.3,-0.3l0.5,0.3l0,58l-0.5,0.3Z" class="g1_45" />
<path fill-rule="evenodd" d="M1302.6,770.1l0.4,0.3l-348.3,0l0.3,-0.3l0.5,-0.3l346.8,0l0.3,0.3Z" class="g1_45" />
<path fill-rule="evenodd" d="M1302.6,770.1l-0.3,-0.3l0,-58l0.3,-0.3l0.4,-0.4l0,59.3l-0.4,-0.3Z" class="g1_45" />
<path fill-rule="evenodd" d="M1302.6,711.5l-0.3,0.3l-346.8,0L955,711.5l0.5,-0.4l346.8,0l0.3,0.4Z" class="g1_45" />
</svg>